<?xml version="1.0" encoding="utf-8"?>
<!-- Generator: Adobe Illustrator 24.2.1, SVG Export Plug-In . SVG Version: 6.00 Build 0)  -->
<svg version="1.1" id="Capa_1" xmlns="http://www.w3.org/2000/svg" xmlns:xlink="http://www.w3.org/1999/xlink" x="0px" y="0px"
	 viewBox="0 0 200 200" style="enable-background:new 0 0 200 200;" xml:space="preserve">
<style type="text/css">
	.st0{fill:#FFFFFF;}
</style>
<g>
	<g id="g4156">
		<path id="path5" class="st0" d="M54.5,170.3l-1.5-8.7c-0.4-2.5-0.9-6.4-1.4-9.1h-0.2c-0.4,2.7-1,6.7-1.5,9.1l-1.6,8.6H54.5z
			 M47.7,175.9l-1.9,9.6h-7l8.7-39.9h8.6l7.9,39.9h-7l-1.9-9.6H47.7z"/>
		<path id="path7" class="st0" d="M80,167.7c0-0.5,0-1.2-0.1-1.7c-0.3-2-1.3-3.7-3-3.7c-2.9,0-4,4.2-4,9c0,5.6,1.5,8.8,3.9,8.8
			c1.1,0,2.3-0.5,3-2.9c0.2-0.5,0.2-1.1,0.2-1.8V167.7z M87.2,144.5v32.7c0,2.6,0.1,5.8,0.2,8.3h-6.2l-0.4-3.3h-0.1
			c-1,2.1-3.3,3.8-6,3.8c-6,0-8.9-6.6-8.9-14.9c0-10.1,4.4-15,9.2-15c2.5,0,4.1,1.2,5,3H80v-14.6L87.2,144.5L87.2,144.5z"/>
		<path id="path9" class="st0" d="M102.2,180.5c2.7,0,3.4-5.2,3.4-9.5c0-4.1-0.7-9.4-3.5-9.4c-3,0-3.7,5.3-3.7,9.4
			C98.4,175.9,99.2,180.5,102.2,180.5L102.2,180.5z M102.1,186c-6.6,0-10.8-5.3-10.8-14.9c0-10.4,5.3-15,11-15
			c6.5,0,10.6,5.6,10.6,14.9C112.9,182.9,106.4,186,102.1,186L102.1,186z"/>
		<path id="path11" class="st0" d="M124.1,175.2c0,0.7,0.1,1.4,0.3,1.9c0.7,2.4,1.9,3,2.9,3c2.8,0,3.9-3.5,3.9-9.2
			c0-5.1-1.2-8.7-3.9-8.7c-1.4,0-2.5,1.5-2.9,3.1c-0.1,0.5-0.3,1.3-0.3,1.8V175.2z M116.9,144.5h7.2v15.1h0.1c1.4-2.2,3.3-3.5,6-3.5
			c5.4,0,8.2,6.2,8.2,14.2c0,10.2-4.1,15.6-9.3,15.6c-2.5,0-4.2-1.1-5.7-3.9h-0.2l-0.4,3.5h-6.2c0.1-2.4,0.2-5.7,0.2-8.3V144.5
			L116.9,144.5z"/>
		<path id="path13" class="st0" d="M155.6,168.3c0-4.1-1.2-6.9-3.4-6.9c-2.6,0-3.7,3.8-3.8,6.9H155.6z M148.4,173.4
			c0.1,5.2,2.8,6.9,6.3,6.9c2.2,0,4-0.5,5.4-1l1,5.2c-1.9,0.8-4.9,1.3-7.7,1.3c-7.7,0-11.9-5.3-11.9-14.3c0-9.7,4.9-15.5,11.3-15.5
			c6.2,0,9.6,5.1,9.6,13.5c0,1.9-0.1,3-0.2,3.8L148.4,173.4L148.4,173.4z"/>
	</g>
	<g id="g4151">
		<polygon id="polygon15" class="st0" points="116.2,14 162.3,14 162.3,124.2 		"/>
		<polygon id="polygon17" class="st0" points="83.8,14 37.7,14 37.7,124.2 		"/>
		<polygon id="polygon19" class="st0" points="79.9,102.1 100,54.6 129.3,124.2 110.1,124.2 101.4,102.1 		"/>
	</g>
</g>
</svg>
