<?xml version="1.0" encoding="utf-8"?>
<!-- Generator: Adobe Illustrator 24.2.1, SVG Export Plug-In . SVG Version: 6.00 Build 0)  -->
<svg version="1.1" id="Capa_1" xmlns="http://www.w3.org/2000/svg" xmlns:xlink="http://www.w3.org/1999/xlink" x="0px" y="0px"
	 viewBox="0 0 200 200" style="enable-background:new 0 0 200 200;" xml:space="preserve">
<style type="text/css">
	.st0{fill:#FFFFFF;}
</style>
<g>
	<path class="st0" d="M98.6,199.9c-4.5-1.3-9.1-2.7-13.6-3.8c-13.9-3.8-27.9-7.5-41.8-11.2c-1.2-0.3-1.5-0.9-1.6-2
		c-0.9-9.2-1.6-18.5-2.5-27.6c-0.8-8.9-1.6-17.8-2.5-26.7c-1-10.7-2-21.4-3-32.1c-0.9-10.2-1.9-20.4-2.8-30.5
		c-0.7-7.4-1.4-14.9-2.1-22.2c-0.1-0.8,0-1.5,0-2.4c47,0,93.8,0,140.9,0c-0.9,10.3-2,20.4-2.9,30.6c-0.9,8.9-1.5,17.8-2.4,26.7
		c-0.9,10.3-1.9,20.6-2.9,30.9c-0.8,8-1.5,16-2.2,24c-0.9,9.1-1.7,18.1-2.7,27.3c-0.4,3.9-0.5,3.8-4.6,4.9c-17.4,4.6-35,9.3-52.4,14
		c-0.1,0-0.2,0.2-0.3,0.3C99.1,199.9,98.9,199.9,98.6,199.9z M120.2,122.6c-0.4,7.5-0.9,14.7-1.4,21.9c0,0.4-0.9,1.1-1.4,1.3
		c-5.2,1.5-10.5,2.9-15.7,4.4c-1.2,0.3-2.5,0.9-3.5,0.7c-6.2-1.5-12.4-3.1-18.6-4.7c-0.4-4.7-0.9-9.3-1.2-13.9c-6,0-11.8,0-17.6,0
		c0,0.4-0.1,0.7-0.1,0.9c0.7,8.3,1.4,16.5,2.1,24.8c0.1,0.6,0.9,1.4,1.5,1.5c10.9,3.3,22,6.6,33,9.8c1.1,0.3,2.4,0.3,3.5,0
		c10.5-3,20.9-6.2,31.4-9.1c2.3-0.6,2.9-1.8,3.1-3.8c1.1-13.3,2.3-26.5,3.4-39.8c0.3-3.6,0.6-7.1,0.9-10.9c-13.4,0-26.6,0-40.3,0
		c0.7-0.3,0.9-0.5,1.1-0.6c13-5.6,26.1-11.2,39.1-16.7c1-0.4,1.6-0.9,1.7-2.1c0.4-5.1,1-10.3,1.5-15.6c-29.5,0-58.9,0-88.4,0
		c0.7,5.7,1.4,11.3,2.1,17c15,0,29.6,0,44.3,0c0,0.1,0,0.2,0.1,0.3C86.5,93.9,72.3,99.8,58,105.8c0.4,5.6,0.9,11.2,1.4,16.9
		C79.7,122.6,99.8,122.6,120.2,122.6z"/>
	<path class="st0" d="M110.1,28.7c-7.4,0-14.5,0-21.8,0c0-2.8,0-5.6,0-8.6c2.7,0,5.3,0,8.4,0c-2.7-2.7-5.1-5-7.4-7.5
		c-0.5-0.6-0.9-1.5-0.9-2.3c-0.1-2.6-0.1-5.1-0.1-7.8c7.3,0,14.5,0,21.7,0c0,3,0,6,0,9.2c-2.6,0-5.3,0-8.3,0c2.6,2.7,5,5,7.2,7.4
		c0.7,0.8,1.2,2,1.3,3C110.2,24.1,110.1,26.5,110.1,28.7z"/>
	<path class="st0" d="M119.1,28.7c0-2.9,0-5.6,0-8.5c2.7,0,5.4,0,8.4,0c-2-2.1-3.6-4.1-5.6-5.6c-2.4-1.9-3.3-4.2-2.9-7.2
		c0.2-1.5,0-3.2,0-5c7.2,0,14.3,0,21.6,0c0,3,0,6,0,9.2c-2.7,0-5.2,0-8.2,0c2.6,2.6,5,4.9,7.2,7.4c0.6,0.7,1,1.7,1.1,2.7
		c0.2,2.3,0.1,4.6,0.1,7C133.5,28.7,126.4,28.7,119.1,28.7z"/>
	<path class="st0" d="M57.2,28.7c0-8.8,0-17.4,0-26.2c7.2,0,14.4,0,21.6,0c0,3,0,6,0,9.2c-4.1,0-8.1,0-12.2,0c0,2.8,0,5.6,0,8.4
		c4,0,8,0,12.1,0c0,2.9,0,5.7,0,8.6C71.7,28.7,64.6,28.7,57.2,28.7z"/>
</g>
</svg>
