<?xml version="1.0" encoding="utf-8"?>
<!-- Generator: Adobe Illustrator 24.2.1, SVG Export Plug-In . SVG Version: 6.00 Build 0)  -->
<svg version="1.1" id="Capa_1" xmlns="http://www.w3.org/2000/svg" xmlns:xlink="http://www.w3.org/1999/xlink" x="0px" y="0px"
	 viewBox="0 0 200 200" style="enable-background:new 0 0 200 200;" xml:space="preserve">
<style type="text/css">
	.st0{fill:#FFFFFF;}
</style>
<g>
	<path class="st0" d="M94.1,75.4c0,16.3,0,32.6,0,49c-0.4,0-0.7,0-1.1,0c-8,0-16,0-24.1,0c-11.5,0-21.4-7.9-23.9-19
		c-3.1-13.4,4.9-25.8,17.1-29c2.3-0.6,4.7-0.9,7.1-0.9c7.9-0.1,15.7,0,23.6,0C93.2,75.4,93.5,75.4,94.1,75.4z"/>
	<path class="st0" d="M94.1,63.5c-6.1,0-12.3,0-18.3,0c-3.1,0-6.3,0.1-9.5-0.2c-8.5-0.9-15-5.3-19-12.9c-7.9-14.6,0.8-32.4,17-35.5
		c1.9-0.3,3.9-0.4,5.8-0.4c7.8,0,15.6,0,23.4,0c0.2,0,0.3,0,0.6,0C94.1,30.8,94.1,47.1,94.1,63.5z"/>
	<path class="st0" d="M106.1,63.4c0-16.3,0-32.6,0-49c1.5,0,3,0,4.5,0c5.3,0,10.7,0,16,0c4.8,0,9.6-0.1,14.2,1.9
		c8.2,3.6,13.3,10,14.8,18.8c2,12.6-5.7,24.3-18.2,27.5c-1.8,0.4-3.6,0.7-5.5,0.7c-8.3,0.1-16.8,0-25.1,0
		C106.6,63.5,106.3,63.4,106.1,63.4z"/>
	<path class="st0" d="M94.2,136.4c0,2.3,0,4.5,0,6.7c0,5.8,0.1,11.7,0,17.5c-0.2,9.9-4.7,17.3-13.3,22c-14.4,7.8-32.4-0.4-35.9-16.2
		c-2.7-12.2,3.9-23.4,14.5-28c2.8-1.2,5.8-1.9,9-1.9c8.3-0.1,16.6,0,24.9,0C93.4,136.4,93.6,136.4,94.2,136.4z"/>
	<path class="st0" d="M155.8,99.9c-0.1,13.8-11.1,24.6-25.1,24.5c-13.8-0.1-24.9-11-24.7-24.8c0.1-13.5,11.1-24.6,25.5-24.4
		C145,75.6,155.9,86.5,155.8,99.9z"/>
</g>
</svg>
