<?xml version="1.0" encoding="utf-8"?>
<!-- Generator: Adobe Illustrator 24.2.1, SVG Export Plug-In . SVG Version: 6.00 Build 0)  -->
<svg version="1.1" id="Capa_1" xmlns="http://www.w3.org/2000/svg" xmlns:xlink="http://www.w3.org/1999/xlink" x="0px" y="0px"
	 viewBox="0 0 200 200" style="enable-background:new 0 0 200 200;" xml:space="preserve">
<style type="text/css">
	.st0{fill:#FFFFFF;}
</style>
<g>
	<path class="st0" d="M131.3,1.6c0,8.8,0,17.6,0,26.5c-3,0-5.8,0-8.8,0c0-4.1,0-8.3,0-12.4c-0.1,0-0.2-0.1-0.3-0.1
		c-1.9,3-3.8,6-5.9,9c-2-3.2-4-6.1-6-9.1c-0.1,0-0.2,0.1-0.2,0.1c0,4.1,0,8.3,0,12.6c-2.9,0-5.8,0-8.8,0c0-8.9,0-17.7,0-26.5
		c3.2,0,6.3,0,9.5,0c1.8,3.1,3.6,6.1,5.5,9.4c1.2-2.1,2.4-3.9,3.5-5.7c0.7-1.2,1.3-2.4,2.1-3.6C125,1.6,128.1,1.6,131.3,1.6z"/>
	<path class="st0" d="M68.9,1.6c0,0.3,0.1,0.7,0.1,1c0,8.1,0,16.3,0,24.4c0,0.3-0.1,0.7-0.1,1.1c-2.9,0-5.8,0-8.8,0
		c0-2.9,0-5.7,0-8.7c-2.7,0-5.4,0-8.1,0c0,2.9,0,5.7,0,8.7c-3,0-5.8,0-8.8,0c-0.1-0.3-0.1-0.7-0.1-1c0-8.2,0-16.5,0-24.7
		c0-0.2,0.1-0.5,0.1-0.7c2.9,0,5.8,0,8.7,0c0,2.9,0,5.8,0,8.6c2.8,0,5.5,0,8.2,0c0-3,0-5.8,0-8.6C63.1,1.6,66,1.6,68.9,1.6z"/>
	<path class="st0" d="M97.4,1.6c0,2.8,0,5.7,0,8.8c-2.6,0-5.1,0-7.8,0c0,0.7,0,1.1,0,1.6c0,5,0,10,0,15c0,1-0.3,1.3-1.3,1.2
		c-2.5-0.1-5,0-7.5,0c0-5.9,0-11.8,0-17.8c-2.7,0-5.2,0-7.8,0c0-3.1,0-6,0-8.8C81.2,1.6,89.3,1.6,97.4,1.6z"/>
	<path class="st0" d="M144.6,1.6c0,5.8,0,11.7,0,17.8c4.1,0,8.1,0,12.3,0c0,3,0,5.8,0,8.8c-7.1,0-14.1,0-21.3,0c0-8.9,0-17.7,0-26.5
		C138.7,1.6,141.6,1.6,144.6,1.6z"/>
	<path class="st0" d="M30.2,40.4c46.5,0,93,0,139.5,0c-0.2,2.3-0.4,4.6-0.6,6.9c-0.8,9.3-1.7,18.7-2.5,28c-0.9,10-1.8,20.1-2.7,30.1
		c-0.8,9-1.6,18.2-2.4,27.2c-0.8,9.1-1.7,18.2-2.5,27.3c-0.7,7.1-1.3,14.3-1.9,21.5c-0.1,1.1-0.4,1.6-1.5,1.8
		c-18.2,5-36.4,10-54.7,15.1c-0.7,0.2-1.5,0.2-2.2,0c-18.2-5-36.3-10-54.5-15.1c-1.2-0.3-1.5-0.7-1.6-2c-0.7-9.1-1.6-18.3-2.4-27.5
		c-0.8-9.1-1.6-18.2-2.4-27.3c-0.8-9.1-1.7-18.2-2.5-27.3S33.8,80.9,33,71.9c-0.8-9.1-1.7-18.3-2.5-27.5
		C30.4,43.2,30.3,41.9,30.2,40.4z M56.4,69.6c-0.1,0.2-0.1,0.2-0.1,0.3c0.7,7.7,1.3,15.5,2.1,23.2c0.8,9.1,1.7,18.3,2.5,27.5
		c0.2,1.7,0.1,1.7,1.8,1.7c19,0,38.1,0,57.1,0c0.6,0,1.1,0,1.7,0c0,0.4,0,0.7,0,0.9c-0.6,7-1.2,13.9-1.8,21
		c-0.1,0.8-0.6,0.9-1.2,1.1c-5.8,1.6-11.6,3.2-17.4,4.6c-0.7,0.2-1.3,0.2-2,0c-5.5-1.4-10.9-2.9-16.3-4.4c-2.2-0.6-2.2-0.6-2.4-2.9
		c-0.3-3.8-0.7-7.6-1-11.5c-5.9,0-11.6,0-17.4,0c0,0.5,0,0.9,0,1.3c0.7,8.1,1.5,16.3,2.2,24.4c0.1,1.2,0.6,1.7,1.7,2
		c9.9,2.7,19.7,5.3,29.4,8.2c3.2,0.9,6.2,1.4,9.4,0c0.9-0.4,2-0.6,3-0.8c9-2.5,18-5,27-7.5c0.7-0.2,1.2-0.4,1.3-1.4
		c0.7-7.8,1.3-15.7,2.1-23.5c0.7-8.3,1.5-16.6,2.2-24.9c0.1-1.4,0.2-2.7,0.3-4.3c-21.3,0-42.5,0-63.7,0c-0.5-6-1.1-11.9-1.6-17.8
		c22.4,0,44.5,0,66.9,0c0.5-5.9,1-11.6,1.6-17.4C114.4,69.6,85.3,69.6,56.4,69.6z"/>
</g>
</svg>
