<?xml version="1.0" encoding="utf-8"?>
<!-- Generator: Adobe Illustrator 24.2.1, SVG Export Plug-In . SVG Version: 6.00 Build 0)  -->
<svg version="1.1" id="Capa_1" xmlns="http://www.w3.org/2000/svg" xmlns:xlink="http://www.w3.org/1999/xlink" x="0px" y="0px"
	 viewBox="0 0 489.3 480" style="enable-background:new 0 0 489.3 480;" xml:space="preserve">
<style type="text/css">
	.st0{fill:#FFFFFF;}
</style>
<g>
	<path class="st0" d="M245.2,6.9c128.6,0,232.9,104.3,232.8,232.7c-0.1,128.5-104.3,232.6-232.7,232.5
		C116.7,472.2,12.6,368.1,12.6,239.6C12.6,111.2,116.7,7,245.2,6.9z M245,379.8c13.6,0,27.2,0.1,40.8,0c12.5-0.2,25.1-0.2,37.4-3
		c31.7-7,51.5-26.3,59-57.9c3.1-13,3.2-26.3,3.3-39.5c0.2-26.8,0.2-53.5,0-80.3c-0.1-12.7-0.2-25.5-3-38c-6.6-30-24.4-49.6-54.2-58
		c-12-3.4-24.3-4-36.6-4.1c-31.2-0.2-62.4-0.2-93.6,0c-10.7,0.1-21.3,0.6-31.8,2.9c-29.2,6.6-48.6,23.9-57.3,52.8
		c-3.6,12.1-4.3,24.5-4.4,37c-0.3,26.9-0.4,53.8-0.3,80.7c0.1,14.4,0.2,28.9,2.7,43.2c5.2,30.8,27.4,54.1,57.9,60.8
		c13,2.8,26.1,3.1,39.3,3.3C217.8,380,231.4,379.8,245,379.8z"/>
	<path class="st0" d="M129.1,239.3c0.4-19.6,0.8-39.2,1.3-58.8c0.2-7.6,1.4-15.1,4-22.3c6.1-17.1,18.3-27.2,35.7-31.3
		c8.3-2,16.9-2.5,25.4-2.6c24.8-0.3,49.7-0.5,74.5-0.4c13,0,26.1,0.5,39.1,1.3c10.5,0.6,20.6,3.5,29.4,9.7
		c11.9,8.5,17.9,20.5,20.1,34.7c2.1,14,2,28.1,2.1,42.2c0.1,24.8-0.1,49.7-0.4,74.5c-0.1,10-0.5,20.1-3.1,29.8
		c-5.6,20.5-19.1,32.4-39.7,36.2c-7.2,1.3-14.6,2-22,2.1c-33.6,0.2-67.2,0.2-100.7,0c-8.9,0-17.7-0.6-26.4-3
		c-20.3-5.6-32.1-19-36.2-39.3c-2.5-12.3-2.2-24.8-2.5-37.2c-0.3-11.8-0.1-23.6-0.1-35.4C129.4,239.3,129.2,239.3,129.1,239.3z
		 M172.8,239.1c0,39.9,32.1,72.3,71.8,72.4c40.1,0.1,72.6-32.1,72.6-72c0.1-40.1-32.3-72.4-72.5-72.4
		C205.1,167.2,172.8,199.4,172.8,239.1z M319.7,181.1c9.3,0.2,17-7.2,17.2-16.7c0.2-9-7.3-16.8-16.4-17c-9.4-0.2-17.1,7.1-17.4,16.5
		C302.9,173.1,310.3,180.9,319.7,181.1z"/>
	<path class="st0" d="M245,192.3c25.9,0,47,21.1,47,47c0,26.1-21,47.1-47.1,47.1c-26,0-47-21-47-46.9
		C197.9,213.4,219.1,192.2,245,192.3z"/>
</g>
</svg>
