<?xml version="1.0" encoding="utf-8"?>
<!-- Generator: Adobe Illustrator 24.2.1, SVG Export Plug-In . SVG Version: 6.00 Build 0)  -->
<svg version="1.1" id="Capa_1" xmlns="http://www.w3.org/2000/svg" xmlns:xlink="http://www.w3.org/1999/xlink" x="0px" y="0px"
	 viewBox="0 0 456.1 466.6" style="enable-background:new 0 0 456.1 466.6;" xml:space="preserve">
<style type="text/css">
	.st0{fill:#FFFFFF;}
</style>
<g>
	<path class="st0" d="M227.5,8.1C354,7.9,456.8,110.7,456.8,237.3S354.2,466.5,227.6,466.6C101,466.7-1.7,364.1-1.7,237.4
		C-1.7,110.6,100.7,8.2,227.5,8.1z M355.9,345.1c0.1-1.5,0.4-2.6,0.4-3.8c0-29,0.3-58-0.2-87c-0.2-9.9-1.6-20-4.4-29.5
		c-6.3-21.1-20.6-34.4-42.5-38.3c-22.8-4-42.7,1.3-57,21.1c-0.5,0.7-1.1,1.3-2.5,2.9c0-7.8,0-14.4,0-21.1c-17.4,0-34.3,0-51.5,0
		c0,52,0,103.7,0,155.4c17.4,0,34.4,0,51.6,0c0-2.2,0-4.1,0-5.9c0-27.3,0.1-54.7,0-82c0-8,2.2-15.1,7.5-21.1
		c7.6-8.5,17.1-11.2,28.1-8.6c10.2,2.4,15.2,9.8,17.3,19.3c1.2,5.6,1.7,11.5,1.7,17.3c0.2,25,0.1,50,0.1,75c0,1.9,0,3.9,0,6.1
		C321.8,345.1,338.6,345.1,355.9,345.1z M168.8,189.7c-17.5,0-34.4,0-51.3,0c0,52,0,103.6,0,155.4c17.3,0,34.1,0,51.3,0
		C168.8,293.1,168.8,241.5,168.8,189.7z M143.2,167.8c13.4-0.1,23.6-6.5,27.6-17.4c5.2-14.2-1.8-29.6-15.9-34.6
		c-16.3-5.8-34.1,1.4-39.2,15.8C109.1,150.3,122.5,167.9,143.2,167.8z"/>
</g>
</svg>
