<?xml version="1.0" encoding="utf-8"?>
<!-- Generator: Adobe Illustrator 24.2.1, SVG Export Plug-In . SVG Version: 6.00 Build 0)  -->
<svg version="1.1" id="Capa_1" xmlns="http://www.w3.org/2000/svg" xmlns:xlink="http://www.w3.org/1999/xlink" x="0px" y="0px"
	 viewBox="0 0 390.4 193.4" style="enable-background:new 0 0 390.4 193.4;" xml:space="preserve">
<style type="text/css">
	.st0{fill:#FFFFFF;}
</style>
<g>
	<g>
		<path class="st0" d="M78.1,146.2c12.7-40.8,22.5-80,29.4-117.5l47.7-11.6c-3.2,32.5-2.9,70.6,0.8,114.3l-33.1,10.2l0.9-20
			l-10.5,2.8l-2.3,14.2L78.1,146.2z M124.8,100.1l2.9-60.4l-0.2,0l-10.4,62.5L124.8,100.1z"/>
		<path class="st0" d="M169.5,24.7c16.2-6.2,29.7-9.7,40.2-10.4c14.3-1,21.7,3.4,22.3,13.4c0.9,14.3-7,29.3-23.8,45
			c1.8,3.9,8.8,16.1,21.2,36.6c-5.1,5.5-12.8,13.5-23.2,24.2l-20.1-42.6l-0.2,0l-0.2,0c-1.5,14-2.5,27-2.9,38.8l-24.6,8.8
			c0-2.3,0.7-9.5,2-21.4L169.5,24.7z M191.3,48.3c-0.7,3.7-1.3,7.3-1.8,11l-1.4,11c3.6-2.2,7-4.9,10.4-8.3c3.9-3.9,6.4-7.5,7.5-10.9
			c0.5-1,0.7-1.9,0.6-2.8c-0.2-2.3-1.8-3.4-4.9-3.2C199.3,45.3,195.9,46.4,191.3,48.3z"/>
		<path class="st0" d="M297.3,8.8l1.2,29.6c-7.4,1-14.4,2-21,3.1c-4.8,29.8-7.6,57.1-8.2,81.8l-26.3,8.9l8.5-85.5
			c-2.8,0.6-5.6,1.3-8.5,2.1l-8.3,2.2l-4.1-29.5L297.3,8.8z"/>
	</g>
	<g>
		<path class="st0" d="M182.5,166c0.4,0.5,0.7,1.1,0.9,1.8c0.3,0.7,0.4,1.5,0.4,2.5c0,3.1-1.2,6-3.6,8.7c-2.3,2.6-5,4.2-8.2,5
			c-2.7,0.7-5.2,0.5-7.4-0.6c-2.5-1.1-3.9-3.1-4.4-5.7c-0.4-2.5,0-4.9,1.3-7.3c1-1.9,2.3-3.5,3.9-4.8c-2.2-0.9-3.4-2.5-3.8-4.6
			c-0.5-2.8,0.5-5.5,2.8-8.1c2-2.2,4.3-3.6,7.1-4.2c1.7-0.4,3.4-0.4,5,0c1.8,0.4,3.1,1.3,4.1,2.7l-6.6,6.5c-0.6-0.8-1.5-1-2.6-0.7
			c-0.7,0.2-1.4,0.6-2,1.2c-0.6,0.6-0.9,1.3-0.9,2c0,0.8,0.3,1.3,0.9,1.7c0.6,0.3,1.3,0.4,2.1,0.2c0.2-0.1,0.9-0.3,2.1-0.6l4.5-1.2
			c2.2-0.5,4.4-1.2,6.8-1.9l1.6,6.6C186.3,165.1,184.9,165.5,182.5,166z M174.6,167.9c-0.8,0.2-1.6,0.4-2.4,0.6
			c-1.2,0.3-2.2,0.8-3.1,1.8c-1,1-1.4,2-1.4,3.2c0,1.2,0.5,2,1.4,2.5c0.9,0.5,2,0.6,3.1,0.3c1.2-0.3,2.3-0.9,3.2-1.8
			c0.9-0.9,1.4-2,1.3-3.1c0-0.6-0.2-1.3-0.7-1.9C175.6,168.7,175.1,168.2,174.6,167.9z"/>
		<path class="st0" d="M186.1,181.5c2.3-10.8,3.7-21.6,4-32.4l10.3-3.5l1.2,16.5l1.7-15.7l9.9-3.5c0.4,9.8,1.2,18.6,2.5,26.4
			c0.3,1.5,0.5,3.1,0.8,4.6l-8.8,3.1l-1.6-19.7l-2.3,22.5l-4.8,1.5l-1.6-27.8l-2.3,25.3L186.1,181.5z"/>
		<path class="st0" d="M229.6,138.4c3.1-0.5,5.6,0.9,7.5,4.1c1,1.7,1.6,3.6,2,5.8c0.3,2.1,0.4,4.4,0.2,6.9
			c-0.4,4.3-1.7,8.5-3.8,12.4c-2.6,4.8-5.7,7.5-9.4,8.1c-3.2,0.5-5.7-0.8-7.6-4.1c-0.9-1.6-1.6-3.5-1.9-5.6c-0.3-2.1-0.4-4.4-0.2-7
			c0.4-4.4,1.6-8.5,3.7-12.4C222.8,141.7,225.9,139,229.6,138.4z M229.8,149.7c-1.6,0.3-3.1,1.9-4.3,4.8c-1,2.3-1.6,4.5-1.8,6.6
			c-0.1,1.1-0.1,2.1,0.1,2.9c0.2,1.2,0.7,2.2,1.4,2.8c0.8,0.7,1.8,1,3.1,0.8c1.7-0.3,3-1.4,4-3.4c0.8-1.6,1.3-3.3,1.5-5.3
			c0.2-2.3,0-4.5-0.7-6.6C232.3,150.4,231.2,149.4,229.8,149.7z"/>
		<path class="st0" d="M257.2,135.4l1.1,8.3c-2.1,0.5-4,0.9-5.8,1.4c-0.6,8.5-0.7,16.3-0.2,23.2l-7.2,3.2l0.2-24.3
			c-0.8,0.3-1.6,0.5-2.3,0.8l-2.3,0.8l-1.9-8.2L257.2,135.4z"/>
		<path class="st0" d="M259.5,136.9l7.4-2.7c-1.1,12.4-1.4,23-0.9,31.8l-6.7,3.1L259.5,136.9z"/>
		<path class="st0" d="M281.2,129.9c3.1-0.5,5.6,0.9,7.5,4.1c1,1.7,1.6,3.6,2,5.8c0.3,2.1,0.4,4.4,0.2,6.9
			c-0.4,4.3-1.7,8.5-3.8,12.4c-2.6,4.8-5.7,7.5-9.4,8.1c-3.2,0.5-5.7-0.8-7.6-4.1c-0.9-1.6-1.6-3.5-1.9-5.6c-0.3-2.1-0.4-4.4-0.2-7
			c0.4-4.4,1.6-8.5,3.7-12.4C274.4,133.2,277.5,130.5,281.2,129.9z M281.4,141.1c-1.6,0.3-3.1,1.9-4.3,4.8c-1,2.3-1.6,4.5-1.8,6.6
			c-0.1,1.1-0.1,2.1,0.1,3c0.2,1.2,0.7,2.2,1.4,2.8c0.8,0.7,1.8,1,3.1,0.8c1.7-0.3,3-1.4,4-3.4c0.8-1.6,1.3-3.3,1.5-5.3
			c0.2-2.3,0-4.5-0.7-6.6C283.9,141.8,282.8,140.9,281.4,141.1z"/>
		<path class="st0" d="M293.3,131.5l7.4-2.8c0.1,0.9,0.3,2.2,0.6,3.9c0.7,4,1.4,7.5,2.2,10.5c0.4,1.7,0.9,3.1,1.4,4.1l0.2-17.8
			l7.4-2.7c-1.1,12.4-1.4,23-0.9,31.8l-6.7,3.1c0-0.1-0.3-0.5-0.8-1.5l-3.4-6.2c-0.6-1-0.9-1.6-1-1.9c0,3.6,0,7.1,0.2,10.4l-6.7,3.3
			L293.3,131.5z"/>
	</g>
</g>
</svg>
