<svg id="Capa_1" data-name="Capa 1" xmlns="http://www.w3.org/2000/svg" viewBox="0 0 390.36 193.37"><defs><style>.cls-1{fill:#8e7d4c;}.cls-2{fill:#675930;}.cls-3{fill:#dd242a;}.cls-4{fill:#002c6f;}.cls-5{fill:#fff;}</style></defs><title>logo-web-albion</title><path class="cls-1" d="M531.66,421.1l9.9-21.69a.75.75,0,0,1,.54-.36h.32a.75.75,0,0,1,.55.36l9.83,21.69a.57.57,0,0,1-.55.83h-2a.75.75,0,0,1-.74-.48l-2-4.42H537c-.65,1.49-1.32,2.94-2,4.42a.79.79,0,0,1-.74.48h-2A.57.57,0,0,1,531.66,421.1Zm14.6-6.84-4-8.83h-.15l-3.94,8.83Z" transform="translate(-345.47 -358.01)"/><path class="cls-1" d="M562.45,400a.61.61,0,0,1,.62-.61h2.12a.63.63,0,0,1,.61.61v18.95h8.74a.61.61,0,0,1,.61.61v1.77a.61.61,0,0,1-.61.61H563.07a.61.61,0,0,1-.62-.61Z" transform="translate(-345.47 -358.01)"/><path class="cls-1" d="M585,400a.61.61,0,0,1,.61-.61h7.22c3.9,0,6.7,2.58,6.7,6a6.2,6.2,0,0,1-3.35,5.12c1.71.71,4,2.29,4,5.25,0,3.61-3,6.22-7,6.22h-7.57a.61.61,0,0,1-.61-.61Zm8.15,19a3.44,3.44,0,0,0,3.48-3.51c0-2-1.87-3.39-4-3.39h-4.42V419Zm-.52-9.8a3.23,3.23,0,0,0,3.32-3.45,3.11,3.11,0,0,0-3.32-3.31h-4.34v6.76Z" transform="translate(-345.47 -358.01)"/><path class="cls-1" d="M611.44,400a.63.63,0,0,1,.62-.61h2.12a.63.63,0,0,1,.61.61v21.33a.63.63,0,0,1-.61.61h-2.12a.63.63,0,0,1-.62-.61Z" transform="translate(-345.47 -358.01)"/><path class="cls-1" d="M637.41,399.05a11.6,11.6,0,1,1-11.57,11.64A11.58,11.58,0,0,1,637.41,399.05Zm0,20a8.38,8.38,0,1,0-8.35-8.34A8.37,8.37,0,0,0,637.41,419Z" transform="translate(-345.47 -358.01)"/><path class="cls-1" d="M660.05,399.63a.6.6,0,0,1,.61-.58h.8l14,16.18h0V400a.61.61,0,0,1,.61-.61h2.06a.63.63,0,0,1,.62.61v21.69a.6.6,0,0,1-.62.57h-.84l-14-16.62h0v15.69a.61.61,0,0,1-.61.61h-2a.63.63,0,0,1-.61-.61Z" transform="translate(-345.47 -358.01)"/><path class="cls-1" d="M534.69,438.64a.61.61,0,0,1,.61-.61h12.89a.61.61,0,0,1,.62.61v1.8a.61.61,0,0,1-.62.61H538v7.45h8.6a.64.64,0,0,1,.62.61v1.77a.65.65,0,0,1-.62.62H538V460a.63.63,0,0,1-.61.61h-2.1a.61.61,0,0,1-.61-.61Z" transform="translate(-345.47 -358.01)"/><path class="cls-1" d="M569.28,437.7a11.6,11.6,0,1,1-11.56,11.64A11.58,11.58,0,0,1,569.28,437.7Zm0,20a8.38,8.38,0,1,0-8.34-8.34A8.38,8.38,0,0,0,569.28,457.68Z" transform="translate(-345.47 -358.01)"/><path class="cls-1" d="M601.85,437.7a11.6,11.6,0,1,1-11.57,11.64A11.59,11.59,0,0,1,601.85,437.7Zm0,20a8.38,8.38,0,1,0-8.35-8.34A8.37,8.37,0,0,0,601.85,457.68Z" transform="translate(-345.47 -358.01)"/><path class="cls-1" d="M627.26,441.05H622a.61.61,0,0,1-.61-.61v-1.8A.61.61,0,0,1,622,438h13.86a.61.61,0,0,1,.61.61v1.8a.61.61,0,0,1-.61.61h-5.25V460a.63.63,0,0,1-.61.61h-2.13a.63.63,0,0,1-.61-.61Z" transform="translate(-345.47 -358.01)"/><path class="cls-1" d="M646.38,438.64A.61.61,0,0,1,647,438h7.22c3.89,0,6.7,2.57,6.7,6a6.19,6.19,0,0,1-3.36,5.12c1.71.71,4,2.29,4,5.25,0,3.61-3,6.22-7,6.22H647a.61.61,0,0,1-.62-.61Zm8.16,19a3.44,3.44,0,0,0,3.48-3.51c0-2-1.87-3.39-4-3.39h-4.41v6.9Zm-.52-9.8a3.23,3.23,0,0,0,3.32-3.45,3.12,3.12,0,0,0-3.32-3.32h-4.35v6.77Z" transform="translate(-345.47 -358.01)"/><path class="cls-1" d="M669.83,459.74l9.9-21.68a.72.72,0,0,1,.54-.36h.33a.72.72,0,0,1,.54.36L691,459.74a.57.57,0,0,1-.55.84h-2a.75.75,0,0,1-.74-.48l-2-4.42H675.12c-.65,1.49-1.32,2.94-2,4.42a.8.8,0,0,1-.74.48h-2A.57.57,0,0,1,669.83,459.74Zm14.6-6.83-4-8.83h-.16l-3.94,8.83Z" transform="translate(-345.47 -358.01)"/><path class="cls-1" d="M700.62,438.64a.61.61,0,0,1,.62-.61h2.12a.63.63,0,0,1,.61.61v18.94h8.74a.61.61,0,0,1,.61.62V460a.61.61,0,0,1-.61.61H701.24a.61.61,0,0,1-.62-.61Z" transform="translate(-345.47 -358.01)"/><path class="cls-1" d="M723.14,438.64a.61.61,0,0,1,.61-.61h2.13a.63.63,0,0,1,.61.61v18.94h8.73a.61.61,0,0,1,.61.62V460a.61.61,0,0,1-.61.61H723.75a.61.61,0,0,1-.61-.61Z" transform="translate(-345.47 -358.01)"/><path class="cls-1" d="M544.68,476.35a11.2,11.2,0,0,1,7.8,3,.59.59,0,0,1,0,.9l-1.42,1.45c-.22.29-.51.29-.8,0a8.76,8.76,0,0,0-5.58-2.16,8.37,8.37,0,0,0,0,16.73,8.66,8.66,0,0,0,5.55-2.13.57.57,0,0,1,.77,0l1.48,1.45a.6.6,0,0,1,0,.86,11,11,0,0,1-7.83,3.13,11.6,11.6,0,1,1,0-23.2Z" transform="translate(-345.47 -358.01)"/><path class="cls-1" d="M563.55,477.29a.61.61,0,0,1,.61-.62h2.13a.63.63,0,0,1,.61.62v18.94h8.73a.61.61,0,0,1,.61.62v1.77a.61.61,0,0,1-.61.61H564.16a.61.61,0,0,1-.61-.61Z" transform="translate(-345.47 -358.01)"/><path class="cls-1" d="M585.36,477.29a.63.63,0,0,1,.61-.62h2.16a.61.61,0,0,1,.61.62v13.3c0,3.23,2.06,5.74,5.35,5.74s5.41-2.48,5.41-5.67V477.29a.61.61,0,0,1,.61-.62h2.16a.63.63,0,0,1,.61.62v13.53a8.76,8.76,0,0,1-17.52,0Z" transform="translate(-345.47 -358.01)"/><path class="cls-1" d="M615.28,477.29a.61.61,0,0,1,.61-.62h7.22c3.89,0,6.7,2.58,6.7,6a6.22,6.22,0,0,1-3.35,5.13c1.7.71,4,2.29,4,5.25,0,3.61-3,6.22-7,6.22h-7.57a.61.61,0,0,1-.61-.61Zm8.15,19a3.44,3.44,0,0,0,3.48-3.52c0-2-1.87-3.38-4-3.38h-4.41v6.9Zm-.52-9.8a3.23,3.23,0,0,0,3.32-3.45,3.12,3.12,0,0,0-3.32-3.32h-4.35v6.77Z" transform="translate(-345.47 -358.01)"/><path class="cls-2" d="M421.32,413a6.13,6.13,0,0,1,1.52.19,3.68,3.68,0,0,0-1.29,1.25,12.74,12.74,0,0,1,2.51-.26,6.35,6.35,0,0,1,3,.61H427a.81.81,0,0,0-.91.83c0,1.15,1.46.32,2.46,1.69.08.09.14.15.15.91a3.47,3.47,0,0,0,3.15,3.22s-.39.71-1.79.74a2.86,2.86,0,0,1,1.53.78,2.57,2.57,0,0,0,1.85,2.09,3.41,3.41,0,0,0,.68.07,3,3,0,0,0,1.37-.34h0a2.56,2.56,0,0,1-2.61,2.86h-.18a2.5,2.5,0,0,1-1.64-.83,9.2,9.2,0,0,1,1.52,4.52,2.54,2.54,0,0,0,1.5,3.16,4,4,0,0,1-.59,0c-.92,0-2.61-.27-2.55-2.25a4,4,0,0,0,0,5.63A4,4,0,0,1,429,432.7a.57.57,0,0,0-.56-.34c-.05,0-.11.05-.12.15a32.88,32.88,0,0,0-.81,7.78,8.63,8.63,0,0,1-3.24-2.69,9.06,9.06,0,0,0,1-5.72s.31,7.37-7.26,8.81a4.29,4.29,0,0,0,.93-1.87s-1.55,1.35-6.27,1.93c0,0-2.93.55-4,2.05a3.59,3.59,0,0,1,.24-2.62,3.31,3.31,0,0,1,2.8-1.55h.19a3.46,3.46,0,0,0,1.65.42,3.16,3.16,0,0,0,1.23-.24,3.52,3.52,0,0,0,1.75-1.63,3.26,3.26,0,0,0-.17-3.15,3.24,3.24,0,0,1-3.13,2.86,4.56,4.56,0,0,1-1-.11,3.19,3.19,0,0,1,1.24-3.93s-3.82.8-2.18,4.73c0,0-3.1.93-3.55,3.35a7.94,7.94,0,0,1-6.24,3l-.71,0s4.67-2,5.05-7.08a1.86,1.86,0,0,1,.83,1.66v0a3.11,3.11,0,0,1,3-3.21h-.21a3.3,3.3,0,0,0-2.57,1.24,3.23,3.23,0,0,1,2.77-3.12c.89-.2,3.8-1.86,4.48-3.52.05-.13-.13-.26-.23-.37a3.06,3.06,0,0,0-2.43-1.28,3.47,3.47,0,0,0-2.37,1,3.23,3.23,0,0,0-.83,2.2,3.61,3.61,0,0,1-2.31-3.36c0-.95.62-2.61,1.55-2.92a1.88,1.88,0,0,0,.07,1c.08.2.4.72.53.73h.44a8.83,8.83,0,0,0,4.62-1.29s-.18-.41-.19-.43a3.51,3.51,0,0,0-3.23-1.95,3.31,3.31,0,0,0-2.63,1.2,1.77,1.77,0,0,1-.27-1.26,1.72,1.72,0,0,1-1.16-1.83,1.67,1.67,0,0,1,.68-1.23,1.6,1.6,0,0,0-.68-.93,8.76,8.76,0,0,1,4.25-1.06,8.15,8.15,0,0,1,1,.05s2.64-2.78,6.05-2.78h.34a4.49,4.49,0,0,1,4.05-2.35m-1.06,5.91.61-.28a5.09,5.09,0,0,1,1.67-.27,4.41,4.41,0,0,1,2.56.78A3.79,3.79,0,0,1,422,421.2s1.94,3.74-2.39,6a4.38,4.38,0,0,0,3.56-4.88,5.1,5.1,0,0,0,2.83-2.94,8.84,8.84,0,0,0-4.82-1.55H421a.75.75,0,0,1-.38-1.09,2.29,2.29,0,0,0-.36,2.21m-5.94,0a1.79,1.79,0,0,0,1.32-.73,1.75,1.75,0,0,1,.86-.63h-3.88a1.67,1.67,0,0,0,1.61,1.36h.09m5.26,5.11a1.6,1.6,0,0,0-1.63-1.23,1.77,1.77,0,0,0-.43.05,4.26,4.26,0,0,1-1.36,5.09c2.3-.69,2.57-3.45,2.57-3.45a1.53,1.53,0,0,1,1,.91,4.3,4.3,0,0,0,.29-5,4.64,4.64,0,0,1-.47,3.64m7.37,5.79h0a3.67,3.67,0,0,1-2.17-3.35,8.85,8.85,0,0,0-2.28,5.67,3.74,3.74,0,0,1-2.06-3.51s-1.56,1.09-.86,3.84c.55,2.14-1.46,3.66-1.46,3.66a3.52,3.52,0,0,0,2.64-4.1,1.74,1.74,0,0,0,1.65,1.48h.16a5.35,5.35,0,0,1,1.79-5,3.61,3.61,0,0,0,3.05,1.87,3.71,3.71,0,0,0,1.1-.16,2.45,2.45,0,0,1-.29-3.46,3.7,3.7,0,0,0-1.75-4.9,3.5,3.5,0,0,1,.93,4,3.72,3.72,0,0,0-.58,3.7,1.28,1.28,0,0,0,.13.26m4.26,7.81a3.44,3.44,0,0,1-.58-4.28,2.23,2.23,0,0,0,.49.79,3.25,3.25,0,0,0,2.34.81,5.1,5.1,0,0,0,.65,0l1.38-.22-1.26-.59a2.09,2.09,0,0,1-1.29-2.57.6.6,0,0,0,0-.26,14,14,0,0,0-.81-3.28,1.93,1.93,0,0,0,.49.07h.2a2.86,2.86,0,0,0,2.42-1.14,3,3,0,0,0,.6-2.27l-.09-.3h-.33a.53.53,0,0,0-.26.08,2.37,2.37,0,0,1-1.11.27,2.44,2.44,0,0,1-.59-.07A2.15,2.15,0,0,1,432,422.9l0-.11-.07-.09a2,2,0,0,0-.45-.39,1.82,1.82,0,0,0,.76-.66l.35-.63h-.72a3,3,0,0,1-2.73-2.79c0-.74-.07-.94-.22-1.16A2.84,2.84,0,0,0,427,416c-.52-.11-.53-.14-.53-.36s0-.24.07-.26a.64.64,0,0,1,.41-.12h0l1.92.12-1.68-.92a6.61,6.61,0,0,0-3.17-.66,11.81,11.81,0,0,0-1.41.08,3,3,0,0,1,.4-.28L424,413l-1.06-.26a7.24,7.24,0,0,0-1.62-.2h0a4.93,4.93,0,0,0-4.3,2.34h-.09a9.62,9.62,0,0,0-6.21,2.77,7.38,7.38,0,0,0-.82,0,9.3,9.3,0,0,0-4.48,1.12l-.58.37.58.36a1.09,1.09,0,0,1,.4.45,2,2,0,0,0-.59,1.33,9.63,9.63,0,0,1,1.51,3.36l.18.25a4.3,4.3,0,0,0-1.43,3.12,4,4,0,0,0,2.6,3.77l.6.2,0-.63a2.82,2.82,0,0,1,.7-1.88,3.09,3.09,0,0,1,2.07-.87,2.65,2.65,0,0,1,2.1,1.12l.09.1c-.74,1.46-3.35,2.93-4.11,3.11a3.66,3.66,0,0,0-3.1,3.54v.27a1.81,1.81,0,0,0-.42-.34l-.57-.28-.05.63c-.35,4.72-4.75,6.7-4.79,6.72l-1.55.68,1.68.14.75,0a8.3,8.3,0,0,0,6.59-3.15l.05-.06a5,5,0,0,0,.12,1.81l.25.86L409,443c.77-1.1,2.91-1.72,3.68-1.86a18,18,0,0,0,5.39-1.39,4.9,4.9,0,0,1-.44.63l-.74.9,1.15-.22a8.8,8.8,0,0,0,5.74-3.4l.13.17a9.05,9.05,0,0,0,3.42,2.81l.58.23v-.62a34.29,34.29,0,0,1,.34-5.17,4.75,4.75,0,0,0,2.47,3.19M413.26,418h2a1.31,1.31,0,0,1-.93.51h-.06a1.3,1.3,0,0,1-1-.51Zm7.31.31a2.62,2.62,0,0,1,0-.27,1.27,1.27,0,0,0,.28.16l-.12,0h0l-.12.06Zm2,3.24a4.17,4.17,0,0,0,2.85-2.05l0,0A4.84,4.84,0,0,1,423,421.9l-.29.11c0-.17-.09-.33-.13-.46Zm-4.31,3.3a5.56,5.56,0,0,0-.17-1.61,1.17,1.17,0,0,1,1.1.92v0a2.86,2.86,0,0,0-.35-.12l-.47-.11-.05.49s0,.16-.07.39Zm-10.83-.19h0a2.89,2.89,0,0,1,2.3-1,3.07,3.07,0,0,1,2.84,1.71l0,0,0,.06a8.84,8.84,0,0,1-4.09,1h-.29a2.33,2.33,0,0,1-.28-.47,1.58,1.58,0,0,1-.06-.77l.18-.75-.65.22Zm12.32-.06.21-.33,0,0-.2.4,0,0Zm7.62,5.39a.43.43,0,0,0-.06-.41,1.07,1.07,0,0,1-.07-.15,3.29,3.29,0,0,1,.49-3.26l.07-.07,0-.09a4.83,4.83,0,0,0,.25-1.61,3.81,3.81,0,0,1-.21,2.17,2.74,2.74,0,0,0-.14,3.4l-.3,0Zm-3.34-1.7c.15-.27.31-.51.45-.72a4,4,0,0,0,.73,1.4,2.88,2.88,0,0,1-.45-.63l-.27-.5-.41.39-.05.06Zm-4.11,6.12a3.48,3.48,0,0,0,.1-2,3.83,3.83,0,0,1,.09-2.57,4.25,4.25,0,0,0,2,2.59,4.62,4.62,0,0,0,0,.66,1.38,1.38,0,0,1-.89-1.08l-.84.12a3.53,3.53,0,0,1-.44,2.32ZM411.38,438l.46-.14-.18-.43a3.19,3.19,0,0,1-.13-2.73,2.9,2.9,0,0,1,.19-.29,3.77,3.77,0,0,0,.09,2.57l.1.19.2,0a5.34,5.34,0,0,0,1.09.12,3.38,3.38,0,0,0,3.17-2,3,3,0,0,1-.26,1.67,3.06,3.06,0,0,1-1.52,1.42,2.63,2.63,0,0,1-1.07.22,3.13,3.13,0,0,1-1.43-.36l-.09-.06h-.32" transform="translate(-345.47 -358.01)"/><path class="cls-2" d="M418.79,460.72a12.49,12.49,0,0,1,6.56,2.07,3.86,3.86,0,0,0-1.69-.38,3.7,3.7,0,0,0-2.19.71,6.13,6.13,0,0,1,1.72-.23,5.25,5.25,0,0,1,4.86,3,5.07,5.07,0,0,1,.53,3,3.31,3.31,0,0,0-2.17-1.22,2.74,2.74,0,0,0-.59-.06,3.6,3.6,0,0,0-3.44,2.56c-.32.92-.47,3.18,2.36,4.49a1.86,1.86,0,0,0-.51-.07c-.48,0-1.14.2-1.21,1.3a1,1,0,0,0,.15.54l.42.4.11.06-.07,0c-2,.06-4.9,2.43-5.45,3.23a4.56,4.56,0,0,0-1.41,2,4.34,4.34,0,0,1,.73,2.18c0,3.44-2.52,3.57-2.9,3.57h0a1.62,1.62,0,0,0,.38-2.08c-2.63-.24-2.54-2.31-2.54-2.31-.08-.42-.27-.44-.3-.44H412c-.73,0-.9,1.15-.9,1.15-.32,1.72-1.27,2.16-2.13,2.16a3.8,3.8,0,0,1-1.65-.44,2.28,2.28,0,0,0-1,2.48,2.79,2.79,0,0,1-1.29-3.27,4.36,4.36,0,0,1,3.26-2.65,3.54,3.54,0,0,0,1.58-.71,5.2,5.2,0,0,0-2.09-.53,1.53,1.53,0,0,0-1.06.3,3.51,3.51,0,0,1-2.19.81,3.92,3.92,0,0,1-2.33-.84,1.67,1.67,0,0,0-.31,0,2,2,0,0,0-1.92,1.37A3.32,3.32,0,0,1,401.1,480a3.55,3.55,0,0,1,2.79-1.9H404c2.6,0,2.8,1.34,4.5,1.59a4.86,4.86,0,0,0,.7.05c1,0,1-.45,1-.45.14-.84-.84-1-1.33-1-3.36-.11-2.36-2.22-2.36-2.22a1.52,1.52,0,0,0-1.16-.33,8,8,0,0,0-1.42.15,6.3,6.3,0,0,1,3.14-1.74,6.12,6.12,0,0,1,.91-.08,2.81,2.81,0,0,1,3,2c.76,2.27,2,2.54,2,2.54a3.17,3.17,0,0,0,.6.05,3,3,0,0,0,2.42-1.21,5.23,5.23,0,0,0,.58-1.66,1.61,1.61,0,0,0-.45-1.31,9.76,9.76,0,0,1-3.57-5.76,3.38,3.38,0,0,0-2,1.68,3.52,3.52,0,0,1,1.56-4.33,4.11,4.11,0,0,0-1-.12,2.86,2.86,0,0,0-1.57.42,10.73,10.73,0,0,1,2.44-3,10.18,10.18,0,0,1,6.73-2.65m0-.43a10.64,10.64,0,0,0-7,2.76,10.87,10.87,0,0,0-2.54,3.16l-.68,1.39,1.29-.85a2.44,2.44,0,0,1,1.25-.34,4,4,0,0,0-.87,4.18l.33.81.43-.76a3.35,3.35,0,0,1,1.27-1.29,10.6,10.6,0,0,0,3.61,5.47,1.19,1.19,0,0,1,.32.93,5,5,0,0,1-.52,1.5,2.6,2.6,0,0,1-2.06,1,2.94,2.94,0,0,1-.51,0c-.09,0-1-.37-1.67-2.23a3.27,3.27,0,0,0-3.45-2.32,5.67,5.67,0,0,0-4.35,1.94l-1,1,1.42-.29a7.78,7.78,0,0,1,1.33-.14,2.18,2.18,0,0,1,.65.07,1.86,1.86,0,0,0,.18,1.38,3.05,3.05,0,0,0,2.68,1.09,1.35,1.35,0,0,1,.88.25.26.26,0,0,1,0,.24,1,1,0,0,1-.55.1,4,4,0,0,1-.64-.06,3.41,3.41,0,0,1-1.45-.63,5,5,0,0,0-3.11-1h-.14a4,4,0,0,0-3.15,2.08,3.66,3.66,0,0,0-1.25,3.14l.27,2,.56-1.93a1.57,1.57,0,0,1,1.51-1.07H402a4.35,4.35,0,0,0,2.5.85,3.89,3.89,0,0,0,2.45-.9h0l0,0h0a1.31,1.31,0,0,1,.76-.17,3.75,3.75,0,0,1,1.12.19,3.42,3.42,0,0,1-.68.21,4.69,4.69,0,0,0-3.59,2.93,3.17,3.17,0,0,0,1.49,3.78l1,.52-.38-1a1.81,1.81,0,0,1,.7-1.83,4.21,4.21,0,0,0,1.58.35c.77,0,2.14-.32,2.55-2.5,0-.17.18-.78.47-.8a.25.25,0,0,0,0,.07,2.77,2.77,0,0,0,2.69,2.66,1.3,1.3,0,0,1-.42,1.39l-.66.67.94.05h.07a3.3,3.3,0,0,0,2.27-.93,4.15,4.15,0,0,0,1.05-3.07,4.61,4.61,0,0,0-.68-2.23,4.39,4.39,0,0,1,1.21-1.61l.05,0,0-.05c.5-.71,3.31-3,5.11-3v-.14l.25-.65,0,0-.35-.34a.33.33,0,0,1-.06-.23c.05-.8.44-.9.78-.9a1.5,1.5,0,0,1,.38.05l.31-.8c-2.94-1.36-2.23-3.7-2.14-4a3.16,3.16,0,0,1,3-2.27,2.57,2.57,0,0,1,.5.05,2.88,2.88,0,0,1,1.89,1l.72,1.11L429,469a5.52,5.52,0,0,0-.57-3.25,8.86,8.86,0,0,0-2.9-3.16,12,12,0,0,0-6.74-2.25Z" transform="translate(-345.47 -358.01)"/><path class="cls-2" d="M438.36,428a2.55,2.55,0,0,1,1.24,4.75,11.82,11.82,0,0,1,3.16-.41,9.93,9.93,0,0,1,6.21,2s.64.62,1,.62c.15,0,.28-.09.31-.35a.71.71,0,0,0-.71-.84l.65-.14a1.22,1.22,0,0,1,.26,2.1,8.45,8.45,0,0,1,.72,7.59c-.32.8-1.31,2.39-1.12,3.51a1.44,1.44,0,0,0-1.15-1h-.09c-1.3,0-2.27,2.54.33,4.13a2.28,2.28,0,0,0,1.14.27,2.45,2.45,0,0,0,2.15-1.17,3.86,3.86,0,0,1-3.94,3.27h-.11a4.15,4.15,0,0,1-3.14-1.81,3.88,3.88,0,0,1-.13-4.07,3.32,3.32,0,0,0-1.16,1.06,2.87,2.87,0,0,0,.57,3.8s-3.9-2.46-1-6.21a2.52,2.52,0,0,1,1.4-1h0a2.79,2.79,0,0,1-2.89-3,2.88,2.88,0,0,1,2.8-2.53l.31,0s-1.21.2-1.25,1.21a1.35,1.35,0,0,0,1.5,1.54h.27a3.84,3.84,0,0,0,1.44-3.27s.09-3-3.53-3.7a2.73,2.73,0,0,1-.44,2.95,2.19,2.19,0,0,0-.48-1.48,2.91,2.91,0,0,0-2.24-1.18,3,3,0,0,0-1.57.49s-4,1.22-5,6.94a8.63,8.63,0,0,0,6.21,9.22,22.62,22.62,0,0,1,15.43,11.29,10.51,10.51,0,0,1,1.43,4.67c.05,2.28-1.35,4.79-4.63,5.94a4.31,4.31,0,0,1-1.44.22c-2.81,0-6.68-2.1-6.57-6.15a6.27,6.27,0,0,0-3-6.77l-.47.78a6.44,6.44,0,0,1,1.57,7.16,8.72,8.72,0,0,0-1.44,3.67,6.19,6.19,0,0,0,4.07,6.58s0,.67-1,.92a1.38,1.38,0,0,0-.18,1.27,1.42,1.42,0,0,0,.91.76,2.32,2.32,0,0,0-2.13,1.85,2.29,2.29,0,0,0,2.53,2.63h.06a1.25,1.25,0,0,0-1.16,1.22,1.29,1.29,0,0,0,.69,1.1,4.4,4.4,0,0,0-1.73-.36,3.45,3.45,0,0,0-2.65,1.2l0,0a4.12,4.12,0,0,0-1,2.41,3.91,3.91,0,0,1,1.16,1.73c.89,3.24-1.71,3.81-1.71,3.81a1.47,1.47,0,0,0-.16-1.9,4.06,4.06,0,0,1-.67.06,2,2,0,0,1-2.09-1.47c-.14-.28-.28-.31-.34-.31h0c-.75.09-.61,1.23-.61,1.23.17,2.14-1.21,2.49-2.12,2.49a3.46,3.46,0,0,1-.76-.08,2,2,0,0,0-.31,2.4,2.5,2.5,0,0,1-1.9-2.54,3.91,3.91,0,0,1,2.2-3.08,3.11,3.11,0,0,0,1.21-1,5.89,5.89,0,0,0-1-.08c-1.48,0-1.85.63-1.85.63a3,3,0,0,1-2.53,1.33,3.72,3.72,0,0,1-1.41-.28,1.81,1.81,0,0,0-1.61,1.71,3,3,0,0,1,.35-2.76,3.26,3.26,0,0,1,2-2.32,5.06,5.06,0,0,1,1.4-.22c1.13,0,1.7.52,2.67.52l.35,0c1.54-.19,1.36-.75,1.36-.75-.05-.49-.43-.61-.81-.61a3,3,0,0,0-.58.07,4.4,4.4,0,0,1-1.09.15c-1.77,0-1.5-1.51-1.5-1.51a.74.74,0,0,0-.44-.12,5.37,5.37,0,0,0-1.85.58,5.71,5.71,0,0,1,2.32-2.27,4.32,4.32,0,0,1,1.77-.42,2.37,2.37,0,0,1,2.13,1.16c1.14,1.69,2.21,1.74,2.33,1.74h0c2.6-.24,2.61-3.38,2.6-3.81a3,3,0,0,0-.22-.28,6.49,6.49,0,0,1-1-5.69,3.69,3.69,0,0,1-3-2.71,3.76,3.76,0,0,0-3.51-2.46,4.75,4.75,0,0,0-1,.1,10,10,0,0,0-.61-10.49,10.41,10.41,0,0,0-9.22-5h-.37s-10.07-1.4-10.76-8.63a5.71,5.71,0,0,1,1.11-.09,10.68,10.68,0,0,1,6.35,2.28,15.13,15.13,0,0,1,3.16-7.25,8.09,8.09,0,0,0-3.47,5.77,8,8,0,0,0-5.31-1.84,11.66,11.66,0,0,0-5.16,1.31,8.54,8.54,0,0,0-4.07,3.84c-.41-.87-1.87-1.08-1.87-1.08-1.69.16-1.63,1.36-1.63,1.36a4,4,0,0,1-.24,2.61c0,2-1.16,2.42-2,2.42a3.12,3.12,0,0,1-.89-.13,1.69,1.69,0,0,0,1.28-1.49c-1.32-.76-.92-1.56-.92-1.56a.89.89,0,0,0-.56-1,1.47,1.47,0,0,0-.59-.14c-.81,0-1,.94-1,.94.08,1.72-1.84,2.37-1.84,2.37-.53.48-.21,1.76-.21,1.76-3.41-2.05.53-4.89.53-4.89.8-.62.34-1.07.34-1.07a.39.39,0,0,0-.36-.22,1.41,1.41,0,0,0-.76.38,2.38,2.38,0,0,1-2.27,1.6,2.23,2.23,0,0,1-.62-.08,1.36,1.36,0,0,0-1.26,1.5c-1.49-1.29.59-2.65.59-2.65.22-1.55,2.84-1.69,2.84-1.69a.65.65,0,0,0,.48-.9.46.46,0,0,0-.46-.35,1.06,1.06,0,0,0-.42.1,3.59,3.59,0,0,1-1.61.45,1.83,1.83,0,0,1-1.42-.58,1.45,1.45,0,0,0-.35,0,1.81,1.81,0,0,0-1.44,1c-.67-2,1.51-2.11,1.81-2.11h0a2.58,2.58,0,0,1,1.57-.55,2.45,2.45,0,0,1,1.21.31,5.85,5.85,0,0,0,1.31.24,10.68,10.68,0,0,1,3.63-.7,5.06,5.06,0,0,1,1.58.2h0c.27,0,5.25-5.14,17.39-6.6,2.65-.31,8.67-.31,10.55-4.88a7.24,7.24,0,0,0,3.28,2.16s-4,9.23,5.66,14.06a9.06,9.06,0,0,0,3.27.84s.25,0,.69,0c2.22,0,9.19.6,11.16,7.95a3.09,3.09,0,0,0-1,2.44c0,1.24.87,3.89,3.62,3.89h.15a3.71,3.71,0,0,0,3.73-4.34,8.57,8.57,0,0,0-1.52-3.37,21,21,0,0,0-10.93-8.5s-10-2.35-9.6-11.46c0,0-.32-6,6.31-10.34,0,0,1.81-1,.82-2.44a1.49,1.49,0,0,0-1.14-.56,1.12,1.12,0,0,0-.55.14,1.23,1.23,0,0,0-.77,1.05h0a.71.71,0,0,0-.21,0,3.25,3.25,0,0,0-.53.49,2.61,2.61,0,0,1,1.29-2.91,2.75,2.75,0,0,1,1.12-.29h.1m0-.43h-.13a3.3,3.3,0,0,0-1.28.34,3,3,0,0,0-1.52,3.4l.19.77.54-.59c.14-.15.3-.31.38-.38h.39l.08-.33,0-.13c0-.23.07-.39.54-.65a.77.77,0,0,1,.34-.08,1.08,1.08,0,0,1,.79.38.91.91,0,0,1,.2.77,2,2,0,0,1-.89,1.05h0c-6.61,4.36-6.52,10.23-6.5,10.7-.4,9.14,9.4,11.74,9.91,11.87a20.68,20.68,0,0,1,10.68,8.3v0l0,0a8.26,8.26,0,0,1,1.44,3.18,3.38,3.38,0,0,1-.71,2.65,3.42,3.42,0,0,1-2.61,1.19h-.14c-2.65,0-3.2-2.73-3.2-3.46a2.68,2.68,0,0,1,.83-2.1l.22-.18-.07-.27c-2.06-7.67-9.38-8.27-11.57-8.27-.35,0-.59,0-.68,0a8.66,8.66,0,0,1-3.09-.79c-3.86-1.93-6-4.79-6.21-8.49a11.89,11.89,0,0,1,.75-5l.18-.41-.41-.16a7.14,7.14,0,0,1-3.09-2l-.44-.64-.3.72c-1.57,3.81-6.33,4.25-9.18,4.52-.38,0-.73.06-1,.1-7,.84-12.8,3-17.21,6.4l-.2.16a6.17,6.17,0,0,0-1.52-.17,10.81,10.81,0,0,0-3.69.7,5.77,5.77,0,0,1-1.08-.2,2.95,2.95,0,0,0-3.09.21,2.54,2.54,0,0,0-2,.84,1.92,1.92,0,0,0-.15,1.83l.32,1,.46-.94s.4-.77,1.06-.77h.14a2.3,2.3,0,0,0,1.63.61,3.91,3.91,0,0,0,1.8-.49.8.8,0,0,1,.23-.05h0l0,0a.42.42,0,0,1,0,.27.32.32,0,0,1-.15.09c-.39,0-2.76.26-3.15,1.86a2.71,2.71,0,0,0-1.17,1.79,1.71,1.71,0,0,0,.69,1.43l.83.72-.13-1.09a.9.9,0,0,1,.82-1,3.68,3.68,0,0,0,.63.06,2.78,2.78,0,0,0,2.62-1.76.86.86,0,0,1,.4-.21h0l0,.06,0,0a.07.07,0,0,1,0,.05s0,.17-.3.38c-.08.05-2.16,1.58-2.08,3.35a2.82,2.82,0,0,0,1.59,2.25l.89.53-.25-1a2.1,2.1,0,0,1,0-1.3,3,3,0,0,0,2-2.69c0-.14.17-.55.55-.55a1.06,1.06,0,0,1,.42.1H394s.24.1.24.51-.22,1.1.88,1.85a1.35,1.35,0,0,1-.95.87l-1.19.41,1.19.4a3.36,3.36,0,0,0,1,.16c.71,0,2.35-.27,2.42-2.75a4.31,4.31,0,0,0,.24-2.77c0-.16.15-.75,1.2-.87.37.07,1.25.32,1.49.83l.41.87.37-.89a8.22,8.22,0,0,1,3.87-3.62,11.31,11.31,0,0,1,5-1.27,7.68,7.68,0,0,1,5,1.73l.31.3a.59.59,0,0,0,0,.13,11,11,0,0,0-6-2,6.49,6.49,0,0,0-1.2.1l-.37.09,0,.37c.71,7.48,10.7,8.95,11.12,9h.43a10,10,0,0,1,8.86,4.76,9.65,9.65,0,0,1,.61,10l-.54.84,1-.19a4.53,4.53,0,0,1,.88-.09,3.3,3.3,0,0,1,3.1,2.16,4.17,4.17,0,0,0,2.84,2.9,6.94,6.94,0,0,0,1.19,5.64l.13.15c0,.74-.18,3.05-2.2,3.24-.1,0-1-.08-1.95-1.53a2.81,2.81,0,0,0-2.5-1.37,4.75,4.75,0,0,0-1.94.46,6.11,6.11,0,0,0-2.52,2.44l-.72,1.25,1.29-.65a4.71,4.71,0,0,1,1.65-.53,1.64,1.64,0,0,0,.38,1,1.94,1.94,0,0,0,1.56.61,5.51,5.51,0,0,0,1.19-.16,2.17,2.17,0,0,1,.48-.06c.34,0,.37.11.38.21a1.8,1.8,0,0,1-1,.29,1.51,1.51,0,0,1-.3,0,3.47,3.47,0,0,1-1.1-.22,4.76,4.76,0,0,0-1.57-.3,5.37,5.37,0,0,0-1.51.24,3.66,3.66,0,0,0-2.28,2.59,3.35,3.35,0,0,0-.34,3.06l.79,1.86,0-2a1.38,1.38,0,0,1,1.15-1.27,4,4,0,0,0,1.45.27,3.46,3.46,0,0,0,2.88-1.51v0l0,0h0s.32-.41,1.47-.41h0a2.56,2.56,0,0,1-.44.26,4.33,4.33,0,0,0-2.45,3.45,2.91,2.91,0,0,0,2.23,3l1.08.24-.63-.9a1.57,1.57,0,0,1,.15-1.69,4.56,4.56,0,0,0,.57,0,2.54,2.54,0,0,0,1.94-.73,2.77,2.77,0,0,0,.6-2.21,1.26,1.26,0,0,1,.11-.71l.05,0h0a2.47,2.47,0,0,0,2.49,1.75,4.38,4.38,0,0,0,.5,0,1.12,1.12,0,0,1,0,1.24l-.46.83.92-.2a3,3,0,0,0,1.8-1.33,3.73,3.73,0,0,0,.23-3,4.29,4.29,0,0,0-1.12-1.78,3.71,3.71,0,0,1,.66-1.65h0l.28-.28a3,3,0,0,1,2.33-1.07,3.71,3.71,0,0,1,1.54.33l.39-.77s-.49-.27-.47-.7a.82.82,0,0,1,.77-.82l0-.85h-.06a1.83,1.83,0,0,1-2.11-2.12c.42-1.49,2.95-1.73,2.95-1.73s-1.65-.81-1.75-1.11a.94.94,0,0,1,.05-.75,1.53,1.53,0,0,0,1.14-1.27l0-.31-.29-.11a5.75,5.75,0,0,1-3.79-6.12,8.5,8.5,0,0,1,1.35-3.48l0,0,0-.06a6.89,6.89,0,0,0-1.43-7.38l.06-.1a5.84,5.84,0,0,1,2.42,6l0,.05v0a5.93,5.93,0,0,0,1.7,4.36,7.65,7.65,0,0,0,5.3,2.24,4.56,4.56,0,0,0,1.58-.25c3.7-1.29,5-4.13,4.91-6.35A10.7,10.7,0,0,0,456,462.4a23.29,23.29,0,0,0-15.7-11.5,8.18,8.18,0,0,1-5.89-8.74c.86-5.39,4.61-6.58,4.65-6.59h.05l.05,0a2.31,2.31,0,0,1,3.25.58,1.8,1.8,0,0,1,.4,1.17l-.14,1.36.89-1a3.1,3.1,0,0,0,.74-2.62,3.29,3.29,0,0,1,2.48,3.09c0,.08,0,.16,0,.23l-1.49-.12h-.35a3.24,3.24,0,0,0-3.22,2.89v.06a3.08,3.08,0,0,0,2.08,3.24,3.79,3.79,0,0,0-.46.5,4.6,4.6,0,0,0-1.13,3.67,5.17,5.17,0,0,0,2.21,3.16l3.27,2.05L444.89,451a2.45,2.45,0,0,1-.62-3.08,4.19,4.19,0,0,0,.68,2.84,4.57,4.57,0,0,0,3.5,2h.14a4.31,4.31,0,0,0,4.33-3.66l.18-1.83-1,1.56a2.05,2.05,0,0,1-1.79,1,1.79,1.79,0,0,1-.92-.22c-1.31-.8-1.57-1.83-1.37-2.53a1,1,0,0,1,.82-.8h.05c.58.05.78.71.78.71l.83-.19a5.27,5.27,0,0,1,.77-2.57c.13-.27.25-.51.33-.71a8.86,8.86,0,0,0-.58-7.7,1.56,1.56,0,0,0,.4-1.19,2,2,0,0,0-1-1.33l-.14-.08-.16,0-.65.14-.92.19a10.56,10.56,0,0,0-5.84-1.65,12.43,12.43,0,0,0-1.87.14,3.36,3.36,0,0,0,.36-2,3.09,3.09,0,0,0-2.89-2.46Zm11.54,6.95a2.62,2.62,0,0,1-.45-.31h.14c.17,0,.23.07.24.09a.36.36,0,0,1,.07.22Zm-4.44,6.4a1.16,1.16,0,0,1-.84-.27,1.13,1.13,0,0,1-.23-.83c0-.64.86-.8.9-.8l1.4-.26a3.26,3.26,0,0,1-1.12,2.16Z" transform="translate(-345.47 -358.01)"/><path class="cls-2" d="M393.37,418.56a1.55,1.55,0,0,1,1.35,1,1.8,1.8,0,0,1,1.38,1.8c0,.58.1,1.11.1,1.11a6.88,6.88,0,0,1,1.58,4.1c.35.05.64,1.07,1,1.92h0c1.47,4.11,6.12,5.37,7.78,5.37a1.41,1.41,0,0,0,.39,0s-3.82,1.49-3,5a3.6,3.6,0,0,1-3.63,3.87,2,2,0,0,1-1.16-.6,2.23,2.23,0,0,1-.45-1.09,3.43,3.43,0,0,0,2.8-2.39,3.46,3.46,0,0,0-2.68-4.7,5.66,5.66,0,0,0-.75-.09,5,5,0,0,0-1.32.29s.93-2.48-1-3.46a5,5,0,0,1-1.27-1.37,3.36,3.36,0,0,1-1.27.24,3.12,3.12,0,0,1-.53,0,3.22,3.22,0,0,1-.87.13c-1.8,0-1.94-1.92-1.94-1.92a1.47,1.47,0,0,0,1.27.63,1.87,1.87,0,0,0,.56-.08c.23-.86.64-1,.86-1a.68.68,0,0,1,.17,0c.68-.16.68-.68.68-.68a.69.69,0,0,0-.74-.81h-.08a2,2,0,0,1-.62.1A2.89,2.89,0,0,1,390,425a.73.73,0,0,0-.39-.1,2.6,2.6,0,0,0-1.08.34c.75-1.39,1.62-1.78,2.36-1.78a2.91,2.91,0,0,1,1.71.65,1,1,0,0,0,.57.23.43.43,0,0,0,.37-.2c.38-.4-.38-.87-.38-.87-1.91-.25-2.32-1.25-2.32-1.25a1.13,1.13,0,0,0-1.08-.75,1.39,1.39,0,0,0-.47.08,2,2,0,0,1,1.53-.82,1.7,1.7,0,0,1,.82.21h.17c1.23,0,2.24,1.67,2.24,1.67a.52.52,0,0,0,.47.3.78.78,0,0,0,.38-.12c.43-.28,0-.77,0-.77-1.81-1-1.36-2-1.36-2a1.05,1.05,0,0,0-1-1.05,2,2,0,0,1,.84-.22m0-.42h0a2.31,2.31,0,0,0-1,.26l-.48.44.66.37a.6.6,0,0,1,.6.57,1.58,1.58,0,0,0,.14,1.11,2.34,2.34,0,0,0-1.43-.56h-.09a2.16,2.16,0,0,0-.9-.19,2.39,2.39,0,0,0-1.86,1l-1.1,1.31,1.59-.64h0a1,1,0,0,1,.31,0,.71.71,0,0,1,.69.5,2.24,2.24,0,0,0,.81.87,2.22,2.22,0,0,0-.37,0c-.76,0-1.85.35-2.74,2l-.7,1.3,1.29-.73a2.17,2.17,0,0,1,.87-.28l.13,0a3.3,3.3,0,0,0,2.15,1,2.37,2.37,0,0,0,.7-.1h0a.41.41,0,0,1,.25.07.43.43,0,0,1,.06.29v0h0s0,.15-.27.23h-.15c-.26,0-.86.11-1.19,1.06h-.23a1.07,1.07,0,0,1-.92-.44l-.88-1.29.11,1.56a2.37,2.37,0,0,0,2.36,2.31,4.08,4.08,0,0,0,.89-.11,5,5,0,0,0,.51,0,3.77,3.77,0,0,0,1.1-.16,5.88,5.88,0,0,0,1.2,1.21h0l0,0c1.56.79.82,2.84.79,2.93l-.3.8.82-.24a5.47,5.47,0,0,1,1.2-.28,2.24,2.24,0,0,1,.44.06l.24,0a3.41,3.41,0,0,1,2.2,1.51,3.31,3.31,0,0,1-2.28,4.72l-.44,0,.05.44a2.58,2.58,0,0,0,.55,1.34,2.54,2.54,0,0,0,1.44.74h.07a4.31,4.31,0,0,0,3.06-1.37,4.4,4.4,0,0,0,1-3v-.06c-.7-3.15,2.62-4.48,2.77-4.54l-.25-.81a1.45,1.45,0,0,1-.3,0c-1.49,0-6-1.2-7.37-5.09l-.11-.28h0a1.46,1.46,0,0,0-.07-.19,4,4,0,0,0-.76-1.55,7.62,7.62,0,0,0-1.59-4c0-.19-.05-.58-.09-1a2.22,2.22,0,0,0-1.5-2.11,1.87,1.87,0,0,0-1.65-1.06Z" transform="translate(-345.47 -358.01)"/><path class="cls-3" d="M369.78,505.64c-19.2-24.83-33-63.46-17.84-121.23L421.47,454Z" transform="translate(-345.47 -358.01)"/><path class="cls-4" d="M421.47,459h0L372,508.47c21.91,26.6,49.42,36.17,49.43,36.17h0s27.52-9.57,49.43-36.17L421.47,459Z" transform="translate(-345.47 -358.01)"/><path class="cls-4" d="M421.47,448.86h0l68.44-68.44a162.19,162.19,0,0,0-68.44-15.06h0A162.19,162.19,0,0,0,353,380.42Z" transform="translate(-345.47 -358.01)"/><path class="cls-3" d="M473.16,505.64c19.2-24.83,33-63.46,17.84-121.23L421.47,454Z" transform="translate(-345.47 -358.01)"/><path class="cls-5" d="M365.34,447.74a.36.36,0,0,1,.36-.36h7.57a.36.36,0,0,1,.36.36v1.06a.36.36,0,0,1-.36.36h-6v4.37h5.06a.38.38,0,0,1,.36.36v1a.38.38,0,0,1-.36.36h-5.06v5a.38.38,0,0,1-.36.36H365.7a.36.36,0,0,1-.36-.36Z" transform="translate(-345.47 -358.01)"/><path class="cls-5" d="M387.73,398.63l5.81-12.74a.47.47,0,0,1,.33-.21h.19a.47.47,0,0,1,.32.21l5.77,12.74a.34.34,0,0,1-.32.49h-1.19a.45.45,0,0,1-.44-.28l-1.17-2.6h-6.19c-.38.87-.78,1.73-1.16,2.6a.47.47,0,0,1-.43.28h-1.2A.34.34,0,0,1,387.73,398.63Zm8.58-4L394,389.43h-.1l-2.3,5.19Z" transform="translate(-345.47 -358.01)"/><path class="cls-5" d="M402,386.23a.36.36,0,0,1,.36-.36h1.25a.37.37,0,0,1,.36.36v11.13h5.13a.36.36,0,0,1,.36.36v1a.36.36,0,0,1-.36.36H402.4a.36.36,0,0,1-.36-.36Z" transform="translate(-345.47 -358.01)"/><path class="cls-5" d="M411.49,386.23a.36.36,0,0,1,.36-.36h4.24a3.44,3.44,0,0,1,2,6.51,3.43,3.43,0,0,1,2.37,3.09c0,2.12-1.74,3.65-4.13,3.65h-4.44a.36.36,0,0,1-.36-.36Zm4.78,11.15a2,2,0,0,0,2.05-2.06,2.17,2.17,0,0,0-2.33-2H413.4v4.05Zm-.3-5.76a1.89,1.89,0,0,0,1.95-2,1.83,1.83,0,0,0-1.95-2h-2.55v4Z" transform="translate(-345.47 -358.01)"/><path class="cls-5" d="M423.26,386.23a.37.37,0,0,1,.36-.36h1.25a.37.37,0,0,1,.36.36v12.53a.37.37,0,0,1-.36.36h-1.25a.37.37,0,0,1-.36-.36Z" transform="translate(-345.47 -358.01)"/><path class="cls-5" d="M434.73,385.68a6.82,6.82,0,1,1-6.8,6.83A6.8,6.8,0,0,1,434.73,385.68Zm0,11.74a4.93,4.93,0,1,0-4.9-4.91A4.93,4.93,0,0,0,434.73,397.42Z" transform="translate(-345.47 -358.01)"/><path class="cls-5" d="M444.25,386a.35.35,0,0,1,.36-.34h.47l8.21,9.5h0v-8.95a.36.36,0,0,1,.36-.36h1.22a.37.37,0,0,1,.35.36V399a.35.35,0,0,1-.35.34h-.5l-8.21-9.77h0v9.22a.36.36,0,0,1-.36.36h-1.19a.37.37,0,0,1-.36-.36Z" transform="translate(-345.47 -358.01)"/><path class="cls-2" d="M497.45,436c1.09,88.65-76,115.43-76,115.43h0V548h0S496.59,521.92,497.45,436Z" transform="translate(-345.47 -358.01)"/><path class="cls-1" d="M345.49,436c-1.09,88.65,76,115.43,76,115.43h0V548h0S346.35,521.92,345.49,436Z" transform="translate(-345.47 -358.01)"/><path class="cls-5" d="M411.75,513.07l-1.08.51c-.12,0-.26,0-.3-.1l-.16-.47a.27.27,0,0,1,0-.27l1.92-1.74h.66a.25.25,0,0,1,.25.25v8.68a.26.26,0,0,1-.25.26H412a.26.26,0,0,1-.26-.26Z" transform="translate(-345.47 -358.01)"/><path class="cls-5" d="M416.8,515.47v0a2.48,2.48,0,0,1-1.4-2.09,2.91,2.91,0,0,1,5.76,0,2.49,2.49,0,0,1-1.39,2.08v.05a2.74,2.74,0,0,1,1.64,2.26c0,1.47-1.19,2.6-3.15,2.6s-3.1-1.13-3.1-2.6A2.84,2.84,0,0,1,416.8,515.47Zm1.47,3.76a1.56,1.56,0,0,0,1.73-1.47,1.72,1.72,0,0,0-3.43,0A1.58,1.58,0,0,0,418.27,519.23Zm1.53-5.84a1.46,1.46,0,0,0-1.56-1.42,1.42,1.42,0,0,0-1.47,1.42c0,.73.46,1.28,1.51,1.45C419.32,514.69,419.8,514.11,419.8,513.39Z" transform="translate(-345.47 -358.01)"/><path class="cls-5" d="M424,519.3c.62-.2,2.79-1.33,3.23-3a4,4,0,0,1-1.8.49,2.81,2.81,0,0,1-2.83-2.93,3.07,3.07,0,0,1,3-3.1c2.15,0,3.18,1.7,3.18,3.8,0,3.77-3.23,5.35-4.47,5.84a.25.25,0,0,1-.34-.16l-.23-.57C423.69,519.53,423.74,519.38,424,519.3Zm3.49-4.61c.12-1.14-.39-2.69-1.87-2.69a1.86,1.86,0,0,0,0,3.72A2.13,2.13,0,0,0,427.49,514.69Z" transform="translate(-345.47 -358.01)"/><path class="cls-5" d="M431.42,513.07l-1.08.51c-.12,0-.26,0-.3-.1l-.16-.47a.27.27,0,0,1,0-.27l1.92-1.74h.66a.25.25,0,0,1,.25.25v8.68a.26.26,0,0,1-.25.26h-.82a.26.26,0,0,1-.26-.26Z" transform="translate(-345.47 -358.01)"/><path class="cls-1" d="M421.47,358A162.26,162.26,0,0,0,357,371.3q-1,2.29-1.83,4.66a163,163,0,0,1,132.62,0q-.87-2.37-1.83-4.66A162.26,162.26,0,0,0,421.47,358Z" transform="translate(-345.47 -358.01)"/><path class="cls-5" d="M406.33,420.07a1.63,1.63,0,0,0-.67,1.23,1.71,1.71,0,0,0,1.15,1.83,1.77,1.77,0,0,0,.27,1.26,3.58,3.58,0,0,1,5.86.75s.2.42.19.43a8.85,8.85,0,0,1-5.06,1.28c-.13,0-.45-.53-.53-.73a1.88,1.88,0,0,1-.07-1c-.93.31-1.55,2-1.55,2.92a3.61,3.61,0,0,0,2.31,3.36,3.23,3.23,0,0,1,.83-2.2,3.13,3.13,0,0,1,4.8.28c.1.11.28.24.23.37-.68,1.66-3.59,3.32-4.48,3.52a3.23,3.23,0,0,0-2.77,3.12,3.28,3.28,0,0,1,2.78-1.23,3.14,3.14,0,0,0-3,3.36,1.89,1.89,0,0,0-.83-1.81c-.38,5.05-5.05,7.08-5.05,7.08a8,8,0,0,0,6.95-2.93c.45-2.42,3.55-3.35,3.55-3.35-1.64-3.93,2.18-4.73,2.18-4.73a3.19,3.19,0,0,0-1.24,3.93,3.23,3.23,0,0,0,4.13-2.75,3.26,3.26,0,0,1,.17,3.15,3.52,3.52,0,0,1-1.75,1.63,3.38,3.38,0,0,1-2.88-.18,3.32,3.32,0,0,0-3,1.55,3.59,3.59,0,0,0-.24,2.62c1-1.5,4-2.05,4-2.05,4.72-.58,6.27-1.93,6.27-1.93a4.29,4.29,0,0,1-.93,1.87c7.57-1.44,7.26-8.81,7.26-8.81a9.06,9.06,0,0,1-1,5.72,8.63,8.63,0,0,0,3.24,2.69,32.88,32.88,0,0,1,.81-7.78c0-.1.07-.15.12-.15a.57.57,0,0,1,.56.34,4,4,0,0,0,1.92,5.22,4,4,0,0,1,0-5.63c-.09,2.72,3.14,2.21,3.14,2.21a2.54,2.54,0,0,1-1.5-3.16,9.2,9.2,0,0,0-1.52-4.52,2.5,2.5,0,0,0,1.64.83,2.57,2.57,0,0,0,2.79-2.86,3,3,0,0,1-2.06.27,2.57,2.57,0,0,1-1.85-2.09,2.86,2.86,0,0,0-1.53-.78c1.4,0,1.79-.74,1.79-.74a3.47,3.47,0,0,1-3.15-3.22c0-.76-.07-.82-.15-.91-1-1.37-2.42-.54-2.46-1.69,0-.91,1-.83,1-.83-2-1.12-5.47-.35-5.47-.35a3.68,3.68,0,0,1,1.29-1.25c-4.1-1-5.57,2.16-5.57,2.16-3.58-.19-6.39,2.77-6.39,2.77a8.9,8.9,0,0,0-5.23,1A1.6,1.6,0,0,1,406.33,420.07ZM427,429.83a1,1,0,0,1-.13-.26,3.72,3.72,0,0,1,.58-3.7,3.5,3.5,0,0,0-.93-4,3.7,3.7,0,0,1,1.75,4.9,2.45,2.45,0,0,0,.29,3.46,3.54,3.54,0,0,1-4.15-1.71,5.35,5.35,0,0,0-1.79,5,1.73,1.73,0,0,1-1.81-1.48,3.52,3.52,0,0,1-2.64,4.1s2-1.52,1.46-3.66c-.7-2.75.86-3.84.86-3.84a3.74,3.74,0,0,0,2.06,3.51,8.85,8.85,0,0,1,2.28-5.67A3.67,3.67,0,0,0,427,429.83Zm-6.33-13.12a.75.75,0,0,0,.38,1.09,8.79,8.79,0,0,1,4.95,1.55,5.1,5.1,0,0,1-2.83,2.94,4.38,4.38,0,0,1-3.56,4.88c4.33-2.23,2.39-6,2.39-6a3.79,3.79,0,0,0,3.15-2.05,4.87,4.87,0,0,0-4.23-.51l-.61.28A2.29,2.29,0,0,1,420.62,416.71Zm-3.1,6.15a1.69,1.69,0,0,1,2.06,1.18,4.64,4.64,0,0,0,.47-3.64,4.3,4.3,0,0,1-.29,5,1.53,1.53,0,0,0-1-.91s-.27,2.76-2.58,3.45A4.26,4.26,0,0,0,417.52,422.86Zm-1-5.29a1.75,1.75,0,0,0-.86.63,1.75,1.75,0,0,1-1.41.73,1.67,1.67,0,0,1-1.61-1.36Z" transform="translate(-345.47 -358.01)"/><path class="cls-5" d="M424.74,474.69c-2.83-1.31-2.68-3.57-2.36-4.49a3.58,3.58,0,0,1,4-2.5,3.31,3.31,0,0,1,2.17,1.22,5.07,5.07,0,0,0-.53-3,5.53,5.53,0,0,0-6.58-2.78,3.8,3.8,0,0,1,3.88-.33c-6.1-3.76-10.7-1.68-13.29.58a10.73,10.73,0,0,0-2.44,3,3.5,3.5,0,0,1,2.57-.3,3.52,3.52,0,0,0-1.56,4.33,3.38,3.38,0,0,1,2-1.68,9.76,9.76,0,0,0,3.57,5.76,1.61,1.61,0,0,1,.45,1.31,5.23,5.23,0,0,1-.58,1.66,3,3,0,0,1-3,1.16s-1.23-.27-2-2.54c0,0-.49-2.45-3.95-1.93a6.3,6.3,0,0,0-3.14,1.74s2.09-.44,2.58.18c0,0-1,2.11,2.36,2.22.49,0,1.47.14,1.33,1,0,0,0,.65-1.67.4s-1.91-1.64-4.64-1.59a3.55,3.55,0,0,0-2.79,1.9,3.32,3.32,0,0,0-1.19,2.84,2,2,0,0,1,2.23-1.35,3.58,3.58,0,0,0,4.52,0s.8-.8,3.15.23a3.54,3.54,0,0,1-1.58.71,4.36,4.36,0,0,0-3.26,2.65,2.79,2.79,0,0,0,1.29,3.27,2.28,2.28,0,0,1,1-2.48s3.13,1.73,3.78-1.72c0,0,.19-1.27,1-1.14,0,0,.22,0,.31.44,0,0-.09,2.07,2.54,2.31a1.62,1.62,0,0,1-.38,2.08s2.94.16,2.94-3.57a4.34,4.34,0,0,0-.73-2.18,4.56,4.56,0,0,1,1.41-2c.55-.8,3.49-3.17,5.45-3.23l.07,0-.11-.06-.42-.4a1,1,0,0,1-.15-.54A1.26,1.26,0,0,1,424.74,474.69Z" transform="translate(-345.47 -358.01)"/><path class="cls-5" d="M455.6,462.61a22.62,22.62,0,0,0-15.43-11.29A8.63,8.63,0,0,1,434,442.1c.91-5.72,5-6.94,5-6.94a2.76,2.76,0,0,1,3.81.69,2.19,2.19,0,0,1,.48,1.48,2.73,2.73,0,0,0,.44-2.95c3.62.69,3.53,3.7,3.53,3.7a3.84,3.84,0,0,1-1.44,3.27c-.81.08-1.82-.17-1.77-1.53,0-1,1.25-1.21,1.25-1.21a2.85,2.85,0,0,0-3.11,2.51,2.81,2.81,0,0,0,2.93,3,2.52,2.52,0,0,0-1.4,1c-2.94,3.75,1,6.21,1,6.21a2.87,2.87,0,0,1-.57-3.8,3.32,3.32,0,0,1,1.16-1.06,3.88,3.88,0,0,0,.13,4.07,4.08,4.08,0,0,0,3.25,1.8,3.86,3.86,0,0,0,3.94-3.27,2.54,2.54,0,0,1-3.29.9c-2.66-1.63-1.59-4.24-.24-4.12a1.44,1.44,0,0,1,1.15,1c-.19-1.12.8-2.71,1.12-3.51a8.45,8.45,0,0,0-.72-7.59,1.22,1.22,0,0,0-.26-2.1l-.65.14a.71.71,0,0,1,.71.84c-.13.92-1.35-.27-1.35-.27-4.11-3.24-9.37-1.61-9.37-1.61a2.68,2.68,0,0,0,1.23-2.65,2.65,2.65,0,0,0-2.57-2.1,2.75,2.75,0,0,0-1.12.29,2.61,2.61,0,0,0-1.29,2.91,3.25,3.25,0,0,1,.53-.49,1,1,0,0,1,.22,0,1.23,1.23,0,0,1,.77-1.05,1.41,1.41,0,0,1,1.69.42c1,1.4-.82,2.44-.82,2.44-6.63,4.37-6.31,10.34-6.31,10.34-.41,9.11,9.6,11.46,9.6,11.46a21,21,0,0,1,10.93,8.5,8.57,8.57,0,0,1,1.52,3.37,3.71,3.71,0,0,1-3.73,4.34c-2.86.1-3.77-2.62-3.77-3.89a3.09,3.09,0,0,1,1-2.44c-2.36-8.79-11.85-7.93-11.85-7.93a9.06,9.06,0,0,1-3.27-.84c-9.65-4.83-5.66-14.06-5.66-14.06a7.24,7.24,0,0,1-3.28-2.16c-1.88,4.57-7.9,4.57-10.55,4.88-12.16,1.46-17.14,6.61-17.4,6.6,0,0-1.92-.7-5.21.5a5.85,5.85,0,0,1-1.31-.24,2.53,2.53,0,0,0-2.78.24s-2.57-.08-1.85,2.11c0,0,.62-1.25,1.79-1,0,0,.94,1.2,3,.13,0,0,.69-.34.88.25a.65.65,0,0,1-.48.9s-2.62.14-2.84,1.69c0,0-2.08,1.36-.59,2.65a1.36,1.36,0,0,1,1.26-1.5,2.41,2.41,0,0,0,2.89-1.52s.78-.73,1.12-.16c0,0,.46.45-.34,1.07,0,0-3.94,2.84-.53,4.89,0,0-.32-1.28.21-1.76,0,0,1.92-.65,1.84-2.37a1.05,1.05,0,0,1,1.57-.8.89.89,0,0,1,.56,1s-.4.8.92,1.56a1.69,1.69,0,0,1-1.28,1.49s2.85,1,2.89-2.29a4,4,0,0,0,.24-2.61s-.06-1.2,1.63-1.36c0,0,1.46.21,1.87,1.08a8.54,8.54,0,0,1,4.07-3.84c6.56-3.24,10.47.53,10.47.53a8.09,8.09,0,0,1,3.47-5.77,15.13,15.13,0,0,0-3.16,7.25c-4-3-7.46-2.19-7.46-2.19.69,7.23,10.76,8.63,10.76,8.63a10.48,10.48,0,0,1,9.59,5,10,10,0,0,1,.61,10.49,3.77,3.77,0,0,1,4.47,2.36,3.69,3.69,0,0,0,3,2.71,6.49,6.49,0,0,0,1,5.69,3,3,0,0,1,.22.28c0,.43,0,3.57-2.6,3.81,0,0-1.13.05-2.34-1.74,0,0-1-2-3.9-.74a5.71,5.71,0,0,0-2.32,2.27s1.72-.88,2.29-.46c0,0-.36,2.07,2.59,1.36.43-.1,1.31-.22,1.39.54,0,0,.18.56-1.36.75s-2.05-1-4.42-.28a3.26,3.26,0,0,0-2,2.32,3,3,0,0,0-.35,2.76,1.81,1.81,0,0,1,1.61-1.71,3.23,3.23,0,0,0,3.94-1.05s.51-.89,2.81-.55a3.11,3.11,0,0,1-1.21,1,3.91,3.91,0,0,0-2.2,3.08,2.5,2.5,0,0,0,1.9,2.54,2,2,0,0,1,.31-2.4s3.13.75,2.88-2.41c0,0-.14-1.14.61-1.23,0,0,.19-.07.38.31,0,0,.41,1.83,2.76,1.41a1.47,1.47,0,0,1,.16,1.9s2.6-.57,1.71-3.81a3.91,3.91,0,0,0-1.16-1.73,4.12,4.12,0,0,1,1-2.41l0,0a3.8,3.8,0,0,1,4.38-.84,1.29,1.29,0,0,1-.69-1.1,1.25,1.25,0,0,1,1.16-1.22,2.29,2.29,0,0,1-2.59-2.63,2.32,2.32,0,0,1,2.13-1.85,1.42,1.42,0,0,1-.91-.76,1.38,1.38,0,0,1,.18-1.27c.95-.25,1-.92,1-.92a6.19,6.19,0,0,1-4.07-6.58,8.72,8.72,0,0,1,1.44-3.67A6.44,6.44,0,0,0,441,461.3l.47-.78a6.27,6.27,0,0,1,3,6.77c-.13,4.81,5.34,6.87,8,5.93,3.28-1.15,4.68-3.66,4.63-5.94A10.51,10.51,0,0,0,455.6,462.61Z" transform="translate(-345.47 -358.01)"/><path class="cls-5" d="M392.62,424.14s-2.37-2.05-4.07,1.13c0,0,1-.55,1.47-.24a2.6,2.6,0,0,0,2.51.78.72.72,0,0,1,.82.81s0,.52-.68.68c0,0-.71-.27-1,1a1.66,1.66,0,0,1-1.83-.55,2,2,0,0,0,2.81,1.79,3.53,3.53,0,0,0,1.8-.2,5,5,0,0,0,1.27,1.37c1.93,1,1,3.46,1,3.46a3.11,3.11,0,0,1,2.07-.2,3.46,3.46,0,0,1,2.68,4.7,3.43,3.43,0,0,1-2.8,2.39,2.23,2.23,0,0,0,.45,1.09,2,2,0,0,0,1.16.6,3.6,3.6,0,0,0,3.63-3.87c-.79-3.55,3-5,3-5-1.12.26-6.56-.82-8.17-5.33h0c-.31-.85-.6-1.87-1-1.92a6.88,6.88,0,0,0-1.58-4.1s-.05-.53-.1-1.11a1.8,1.8,0,0,0-1.38-1.8,1.51,1.51,0,0,0-2.19-.77,1.05,1.05,0,0,1,1,1.05s-.45,1,1.36,2c0,0,.44.49,0,.77a.56.56,0,0,1-.85-.18s-1.11-1.84-2.42-1.66a1.79,1.79,0,0,0-2.34.61,1.19,1.19,0,0,1,1.55.67s.41,1,2.32,1.25c0,0,.76.47.38.88C393.56,424.18,393.3,424.64,392.62,424.14Z" transform="translate(-345.47 -358.01)"/><path class="cls-5" d="M474.49,447.19a6.56,6.56,0,0,1,4.58,1.76.35.35,0,0,1,0,.53l-.84.85c-.13.17-.3.17-.47,0a5.11,5.11,0,0,0-3.27-1.27,4.91,4.91,0,0,0,0,9.82,5,5,0,0,0,3.25-1.25.35.35,0,0,1,.46,0l.87.85a.36.36,0,0,1,0,.51,6.5,6.5,0,0,1-4.6,1.83,6.81,6.81,0,1,1,0-13.62Z" transform="translate(-345.47 -358.01)"/></svg>