<?xml version="1.0" encoding="utf-8"?>
<!-- Generator: Adobe Illustrator 24.2.1, SVG Export Plug-In . SVG Version: 6.00 Build 0)  -->
<svg version="1.1" id="Capa_1" xmlns="http://www.w3.org/2000/svg" xmlns:xlink="http://www.w3.org/1999/xlink" x="0px" y="0px"
	 viewBox="0 0 841.9 595.3" style="enable-background:new 0 0 841.9 595.3;" xml:space="preserve">
<style type="text/css">
	.st0{fill:#FFFFFF;stroke:#FFFFFF;}
	.st1{fill:none;stroke:#FFFFFF;stroke-width:31;stroke-miterlimit:10;}
</style>
<g>
	<path class="st0" d="M354.3,175c0,16.9,0.1,93.9,0.2,107.2v46.1c0,4.4-0.5,8.3-1.6,11.8c-1,3.4-2.5,6.4-4.2,9
		c-1.8,2.6-3.8,4.8-6,6.6c-2.2,1.8-4.5,3.4-6.8,4.6c-5.4,2.9-11.6,4.8-18.5,5.5V342c3.9-1,6.8-2.2,8.7-3.7c1.9-1.5,3.2-3,3.9-4.6
		c0.9-1.7,1.2-3.5,1.1-5.5V175.2L354.3,175z"/>
	<path class="st0" d="M359.8,365.7V237.2h29.4l10.6,66.1l10.5-66.1h29.9v180.7h-23.9V303.8l-10.5,61.9h-12.3l-10.5-61.3v61.3H359.8z
		"/>
	<circle class="st1" cx="384.2" cy="298" r="127"/>
</g>
</svg>
