<?xml version="1.0" encoding="utf-8"?>
<!-- Generator: Adobe Illustrator 24.2.1, SVG Export Plug-In . SVG Version: 6.00 Build 0)  -->
<svg version="1.1" id="Capa_1" xmlns="http://www.w3.org/2000/svg" xmlns:xlink="http://www.w3.org/1999/xlink" x="0px" y="0px"
	 viewBox="0 0 200 200" style="enable-background:new 0 0 200 200;" xml:space="preserve">
<style type="text/css">
	.st0{fill:#FFFFFF;}
</style>
<g>
	<path class="st0" d="M100,36.3c0.6-0.6,1.4-1.3,2.1-1.8c4.1-3.8,8.4-7.2,13.1-10.4c4.1-2.7,8.4-5.1,13.1-6.7
		c3.9-1.4,7.9-2.2,12.1-1.8c5.3,0.4,9.3,2.9,12.3,7.2c2.2,3.1,3.5,6.7,4.2,10.5c0.6,2.8,1,5.7,1.1,8.5c0,1.8,0.2,3.8,0.1,5.6
		c-0.1,4-0.5,8-1.2,12c-0.5,2.8-1.2,5.6-1.7,8.5c0,0.1,0,0.2,0,0.3c0.1,0.1,0.3,0.2,0.5,0.2c5.4,1.6,10.8,3.6,15.9,6
		c4.8,2.3,9.2,4.9,13.3,8.2c2.7,2.3,5.2,4.8,7.1,7.8c1.8,2.9,3,6.1,2.9,9.6c0,2.4-0.6,4.7-1.6,6.7c-1.4,3-3.4,5.5-5.7,7.9
		c-3.9,3.9-8.3,6.8-13.1,9.4c-4.7,2.5-9.4,4.5-14.4,6.2c-1.5,0.5-3,1-4.5,1.5c0.2,1,0.4,1.9,0.6,2.9c0.9,3.8,1.5,7.5,1.8,11.3
		c0.1,1.6,0.2,3.4,0.3,5c0.1,1.8,0.2,3.7,0.1,5.5c-0.2,5.2-0.9,10.3-2.7,15.1c-1.2,3-2.7,6-5.1,8.2c-2.6,2.5-5.6,4-9.2,4.4
		c-3.8,0.5-7.6,0-11.3-1.1c-4.8-1.4-9.2-3.7-13.5-6.3c-4.7-2.9-9-6.3-13.1-10c-1.1-1-2.2-1.9-3.2-3c-0.8,0.6-1.4,1.3-2.2,1.9
		c-2.5,2.4-5.2,4.5-8,6.6c-3.1,2.3-6.3,4.4-9.7,6.3c-4.2,2.3-8.7,4.1-13.4,5.1c-2.4,0.5-4.9,0.8-7.2,0.5c-3.6-0.3-6.8-1.4-9.6-3.7
		c-2.2-1.8-3.8-4-5-6.5c-1.7-3.5-2.6-7.1-3-11c-0.2-2.2-0.3-4.3-0.4-6.5c-0.1-1.3-0.1-2.7,0-4c0.2-2.7,0.4-5.4,0.8-8
		c0.5-4,1.3-8,2.3-11.9c0-0.1,0-0.3,0.1-0.5c-0.9-0.3-1.7-0.5-2.6-0.9c-4.1-1.3-8.1-2.8-12-4.7c-3.9-1.8-7.6-3.8-11.1-6.3
		c-2.6-1.8-5.1-3.9-7.4-6.2c-1.8-1.9-3.5-4.1-4.8-6.5c-1.5-3-2.4-6.2-2.1-9.5c0.3-3,1.4-5.7,3-8.2c2.5-3.8,5.7-6.8,9.3-9.4
		c5.6-4.1,11.9-7.1,18.5-9.5c2.7-1,5.5-1.8,8.2-2.7c0.2-0.1,0.4-0.1,0.8-0.2c-0.1-0.6-0.3-1.4-0.4-2.1c-1-4-1.7-8.1-2.2-12.2
		c-0.2-2.2-0.3-4.4-0.5-6.6c-0.1-1.4-0.1-2.8-0.1-4.2c0.1-4.9,0.6-9.7,2.3-14.3c1.1-3,2.5-5.7,4.8-8.1c2.1-2.2,4.5-3.6,7.4-4.3
		c2.6-0.6,5.2-0.8,7.9-0.4c4.7,0.5,8.9,2.1,13.1,4c6.5,3.1,12.2,7.2,17.7,11.8C96.5,33.2,98.2,34.7,100,36.3z M99.7,130.4
		L99.7,130.4c1.8,0,3.6,0.1,5.4,0c2.6-0.1,5.3-0.2,7.9-0.3c1.2-0.1,2.5-0.1,3.7-0.2c0.4,0,0.6-0.2,0.9-0.5c0.9-1.3,1.7-2.6,2.6-4
		c5.1-8,9.8-16.3,14.1-24.9c0.2-0.5,0.3-1,0-1.5c-1.4-2.6-2.7-5.3-4.1-7.9c-3-5.5-6.2-10.9-9.5-16.1c-1-1.5-2.1-3.1-3-4.7
		c-0.2-0.2-0.3-0.5-0.6-0.5c-1.8-0.1-3.8-0.2-5.6-0.3c-1.9-0.1-3.9-0.1-5.8-0.2c-4.7-0.1-9.4-0.1-14.1,0.1c-2.7,0.1-5.3,0.3-8,0.4
		c-0.4,0-0.8,0.2-1,0.5c-1.9,3-4,6.2-6,9.2c-3.9,6.3-7.4,12.8-10.6,19.4c-0.3,0.6-0.3,1.1,0,1.6c1.5,2.9,3,6,4.7,8.9
		c2.2,3.8,4.3,7.6,6.6,11.4c1.7,2.8,3.6,5.6,5.4,8.3c0.2,0.3,0.4,0.6,1,0.6c0.6,0,1.3,0.1,2.1,0.1c2.1,0.1,4.2,0.2,6.3,0.3
		C94.3,130.4,97,130.4,99.7,130.4z M47.1,76c-0.2,0-0.3,0-0.4,0.1c-1.4,0.4-2.9,0.9-4.3,1.3c-4.8,1.5-9.3,3.4-13.6,5.7
		c-3,1.6-5.8,3.4-8.4,5.5c-2.1,1.7-3.9,3.6-5.3,5.8c-0.8,1.2-1.3,2.4-1.6,3.7c-0.4,2.2,0.1,4.1,1.1,6c1.3,2.5,3.1,4.5,5.3,6.4
		c3.1,2.8,6.6,5,10.3,6.9c4.4,2.4,9.1,4.2,13.8,5.7c1.1,0.3,2.1,0.6,3.1,1c0.1-0.2,0.2-0.4,0.2-0.5c0.2-0.8,0.5-1.6,0.8-2.4
		c1.7-5.2,3.7-10.3,5.7-15.3c0.8-1.7,1.5-3.5,2.4-5.2c0.2-0.5,0.2-1,0-1.5c-0.3-0.5-0.5-1.1-0.8-1.6c-2.5-5.5-4.7-11.1-6.6-16.9
		C48.1,79.2,47.6,77.6,47.1,76z M52.8,134.1c-0.1,0.4-0.2,0.8-0.3,1.1c-0.9,3.8-1.7,7.6-2.1,11.5c-0.2,2.5-0.4,5-0.5,7.6
		c-0.1,2.2,0.1,4.2,0.2,6.4c0.2,2.2,0.5,4.4,1.2,6.5c0.6,2.2,1.5,4.2,2.9,6.1c0.8,0.9,1.5,1.5,2.5,2.1c1.7,0.9,3.7,1.1,5.6,1
		c2.7-0.2,5.4-0.9,7.9-1.8c5-1.8,9.5-4.5,13.7-7.6c2.9-2.1,5.7-4.4,8.4-6.8c0.6-0.6,1.3-1.3,1.9-2.1c-0.1-0.1-0.2-0.3-0.4-0.5
		c-2.6-3-5.3-6.1-7.9-9.2c-2.6-3.1-5-6.5-7.5-9.8c-0.3-0.5-0.8-0.8-1.4-0.8c-0.1,0-0.2,0-0.3,0c-3.5-0.4-6.9-0.8-10.4-1.2
		c-3.2-0.4-6.4-1-9.5-1.5C55.7,134.8,54.3,134.4,52.8,134.1z M106,157.9c0.6,0.5,1.2,1.1,1.7,1.6c2.4,2.3,5,4.4,7.6,6.4
		c4.1,3.1,8.5,6,13.3,7.9c2.9,1.3,6.1,2.2,9.3,2.4c3.6,0.2,6.5-1,8.4-4.1c1.4-2.2,2.3-4.5,2.8-7c1-4.1,1.3-8.2,1.1-12.4
		c-0.1-2.1-0.2-4.2-0.4-6.3c-0.4-4.1-1.2-8-2.1-12c0-0.2-0.1-0.4-0.2-0.6c-0.2,0-0.4,0.1-0.5,0.1c-2.9,0.5-5.8,1.2-8.9,1.7
		c-5.2,0.9-10.4,1.5-15.7,2.1c-0.4,0-0.6,0.2-0.9,0.5c-0.5,0.8-1.1,1.5-1.5,2.2c-3.4,4.8-6.9,9.3-10.7,13.7
		C108.3,155.3,107.2,156.6,106,157.9z M94.3,42.2c-0.8-0.8-1.5-1.5-2.3-2.2c-3.9-3.5-7.9-6.6-12.2-9.4c-3.8-2.4-7.7-4.4-12-5.7
		c-2.5-0.8-5.1-1.3-7.8-1.1c-2.1,0.2-3.9,0.9-5.4,2.5c-1,1.1-1.7,2.3-2.3,3.6c-1.7,3.9-2.3,8-2.4,12.2c-0.1,3.4,0,6.6,0.3,10
		c0.4,3.7,1,7.2,1.8,10.9c0.2,1.1,0.5,2.2,0.8,3.2c0.3,0,0.4,0,0.6-0.1c2.9-0.5,5.7-1.2,8.7-1.7c5.1-0.9,10.2-1.6,15.3-2.1
		c0.4,0,0.9-0.2,1.1-0.6c0.4-0.6,1-1.4,1.5-2.1c3.9-5.3,8-10.4,12.3-15.3C93,43.7,93.6,42.9,94.3,42.2z M147.1,66.2
		c0.1-0.2,0.2-0.4,0.2-0.6c0.2-1.2,0.5-2.3,0.8-3.5c0.9-4.1,1.5-8.3,1.7-12.5c0.1-2.1,0.2-4.1,0.1-6.3c-0.1-3-0.4-6.1-1.1-9
		c-0.5-2.5-1.4-4.9-2.9-7c-1.2-1.7-2.7-2.9-4.8-3.5c-1.2-0.2-2.4-0.3-3.6-0.2c-2.9,0.2-5.7,1-8.4,2.2c-5,2.1-9.5,4.9-13.8,8.2
		c-2.6,1.9-5.1,4.1-7.6,6.3c-0.8,0.6-1.4,1.3-2.1,1.9c0.3,0.3,0.5,0.6,0.8,0.9c2.3,2.7,4.8,5.3,6.9,8.1c2.7,3.5,5.3,6.9,7.9,10.4
		c0.2,0.3,0.5,0.6,1,0.6c3,0.3,6.1,0.6,9.1,1.1c2.9,0.4,5.8,0.9,8.8,1.4C142.5,65.2,144.8,65.7,147.1,66.2z M143.6,99.8
		c3.7,7.8,6.9,15.8,9.6,24c0.3-0.1,0.6-0.1,0.9-0.2c4-1.2,8-2.7,11.8-4.4c4.7-2.2,9.2-4.5,13.2-7.8c2.5-2.1,4.9-4.3,6.4-7.2
		c1.5-2.8,1.6-5.6,0-8.5c-1.3-2.3-3-4.2-5.1-6c-3-2.7-6.5-4.8-10.1-6.6c-4.8-2.5-9.6-4.3-14.7-6c-1-0.3-1.9-0.5-2.9-0.9
		C150.3,84.2,147.2,92.1,143.6,99.8z M127.7,128.9c6.1-0.8,11.8-1.7,17.6-3c-1.8-5.6-3.9-11.1-6.4-16.7
		C135.5,116.1,131.7,122.4,127.7,128.9z M72.3,129c-4.1-6.4-7.8-12.8-11.3-19.5c-2.4,5.5-4.3,11-6.2,16.7
		C60.6,127.5,66.4,128.4,72.3,129z M111.2,138.6c0-0.1-0.1-0.1-0.1-0.2c-0.5,0-1.2,0.1-1.7,0.1c-2.5,0.1-4.9,0.1-7.4,0.2
		c-2.1,0-4.1-0.1-6.2-0.1c-2.3,0-4.5,0-7-0.1c3.6,4.8,7.4,9.2,11.4,13.5C104.2,147.8,107.8,143.2,111.2,138.6z M111,61.4
		c-0.9-1.8-10-12.7-11-13.3c-3.1,3.2-10.4,12-10.9,13.3c0.6,0,1.2-0.1,1.7-0.1c2.4-0.1,4.7-0.1,7-0.2c2.9,0,6,0.1,8.9,0.1
		c0.1,0,0.3,0,0.4,0C108.4,61.4,109.7,61.4,111,61.4z M127.7,71c4,6.4,7.7,12.7,11.1,19.3c2.3-5.4,4.3-10.7,6.1-16.2
		C139.3,72.8,133.6,71.8,127.7,71z M72.1,71C66.3,71.8,60.6,72.7,55,74c1.7,5.5,3.7,10.9,6.1,16.3C64.4,83.7,68.1,77.4,72.1,71z"/>
	<path class="st0" d="M116.9,99.8c0.1,9.3-7.7,17-17,17c-9.1,0-17-7.2-17-17c0-9.8,8.1-17.3,17.6-16.9
		C109.4,83.2,117,90.5,116.9,99.8z"/>
</g>
</svg>
